<svg xmlns="http://www.w3.org/2000/svg" viewBox="0 0 667 348" width="667" height="348" preserveAspectRatio="xMidYMid meet" style="width: 100%; height: 100%; transform: translate3d(0px, 0px, 0px);"><defs><clipPath id="__lottie_element_93"><rect width="667" height="348" x="0" y="0"></rect></clipPath></defs><g clip-path="url(#__lottie_element_93)"><g style="display: block;" transform="matrix(1,0,0,1,597.5829467773438,120.86099243164062)" opacity="0.9956305686678902"><g opacity="1" transform="matrix(1,0,0,1,32.13600158691406,112.7030029296875)"><path fill="rgb(201,201,201)" fill-opacity="1" d=" M-6.572999954223633,-20.445999145507812 C-6.572999954223633,-20.445999145507812 -6.572999954223633,-102.23100280761719 -6.572999954223633,-102.23100280761719 C-6.572999954223633,-102.23100280761719 31.886999130249023,-112.4540023803711 31.886999130249023,-112.4540023803711 C31.886999130249023,-112.4540023803711 31.886999130249023,-34.07699966430664 31.886999130249023,-34.07699966430664 C31.886999130249023,-34.07699966430664 27.990999221801758,-32.13100051879883 27.990999221801758,-32.13100051879883 C27.990999221801758,-32.13100051879883 7.059000015258789,-7.788000106811523 7.059000015258789,-7.788000106811523 C7.059000015258789,-7.788000106811523 7.059000015258789,36.999000549316406 7.059000015258789,36.999000549316406 C7.059000015258789,36.999000549316406 9.003999710083008,38.94499969482422 9.003999710083008,38.94499969482422 C9.003999710083008,38.94499969482422 9.003999710083008,41.380001068115234 9.003999710083008,41.380001068115234 C9.003999710083008,41.380001068115234 6.084000110626221,41.380001068115234 6.084000110626221,41.380001068115234 C6.084000110626221,41.380001068115234 6.084000110626221,88.5999984741211 6.084000110626221,88.5999984741211 C6.084000110626221,88.5999984741211 -31.886999130249023,112.4540023803711 -31.886999130249023,112.4540023803711 C-31.886999130249023,112.4540023803711 -31.886999130249023,25.802000045776367 -31.886999130249023,25.802000045776367 C-31.886999130249023,25.802000045776367 -19.716999053955078,-6.328999996185303 -19.716999053955078,-6.328999996185303 C-19.716999053955078,-6.328999996185303 -6.572999954223633,-20.445999145507812 -6.572999954223633,-20.445999145507812z"></path></g></g><g style="display: block;" transform="matrix(1,0,0,1,458.3529968261719,187.0659942626953)" opacity="1"><g opacity="1" transform="matrix(1,0,0,1,21.427000045776367,8.526000022888184)"><path fill="rgb(201,201,201)" fill-opacity="1" d=" M21.177000045776367,-8.276000022888184 C21.177000045776367,-8.276000022888184 -21.177000045776367,3.8949999809265137 -21.177000045776367,3.8949999809265137 C-21.177000045776367,3.8949999809265137 21.177000045776367,8.276000022888184 21.177000045776367,8.276000022888184 C21.177000045776367,8.276000022888184 21.177000045776367,-8.276000022888184 21.177000045776367,-8.276000022888184z"></path></g></g><g style="display: block;" transform="matrix(1,0,0,1,328.8609924316406,176.84300231933594)" opacity="1"><g opacity="1" transform="matrix(1,0,0,1,46.74100112915039,10.043000221252441)"><path fill="rgb(220,220,220)" fill-opacity="1" d=" M-21.66200065612793,-2.9769999980926514 C-21.66200065612793,-2.9769999980926514 -46.49100112915039,1.8910000324249268 -46.49100112915039,1.8910000324249268 C-46.49100112915039,1.8910000324249268 46.49100112915039,9.793000221252441 46.49100112915039,9.793000221252441 C46.49100112915039,9.793000221252441 46.49100112915039,1.8910000324249268 46.49100112915039,1.8910000324249268 C46.49100112915039,1.8910000324249268 38.215999603271484,-0.5429999828338623 38.215999603271484,-0.5429999828338623 C38.215999603271484,-0.5429999828338623 23.610000610351562,-5.8979997634887695 23.610000610351562,-5.8979997634887695 C23.610000610351562,-5.8979997634887695 -6.085000038146973,-9.793000221252441 -6.085000038146973,-9.793000221252441 C-6.085000038146973,-9.793000221252441 -21.66200065612793,-5.8979997634887695 -21.66200065612793,-5.8979997634887695 C-21.66200065612793,-5.8979997634887695 -21.66200065612793,-2.9769999980926514 -21.66200065612793,-2.9769999980926514z"></path></g></g><g style="display: block;" transform="matrix(1,0,0,1,58.680999755859375,79.57701110839844)" opacity="1"><g opacity="1" transform="matrix(1,0,0,1,198.62600708007812,105.84100341796875)"><path fill="rgb(201,201,201)" fill-opacity="1" d=" M193.9949951171875,-17.573999404907227 C198.37600708007812,-14.652999877929688 197.89100646972656,-1.0199999809265137 192.53500366210938,4.821000099182129 C192.53500366210938,4.821000099182129 172.08999633789062,4.821000099182129 172.08999633789062,4.821000099182129 C172.08999633789062,4.821000099182129 158.45799255371094,1.899999976158142 158.45799255371094,1.899999976158142 C158.45799255371094,1.899999976158142 143.36700439453125,-4.916999816894531 143.36700439453125,-4.916999816894531 C143.36700439453125,-4.916999816894531 5.5980000495910645,-75.01799774169922 5.5980000495910645,-75.01799774169922 C5.5980000495910645,-75.01799774169922 -12.413999557495117,-80.86000061035156 -12.413999557495117,-80.86000061035156 C-12.413999557495117,-80.86000061035156 -28.479000091552734,-83.29399871826172 -28.479000091552734,-83.29399871826172 C-28.479000091552734,-83.29399871826172 -160.89100646972656,-81.10299682617188 -160.89100646972656,-81.10299682617188 C-160.89100646972656,-81.10299682617188 -160.89100646972656,16.017000198364258 -160.89100646972656,16.017000198364258 C-160.89100646972656,16.017000198364258 -192.53399658203125,104.12999725341797 -192.53399658203125,104.12999725341797 C-192.53399658203125,104.12999725341797 -198.37600708007812,105.58999633789062 -198.37600708007812,105.58999633789062 C-198.37600708007812,105.58999633789062 -189.61300659179688,22.83099937438965 -189.61300659179688,22.83099937438965 C-189.61300659179688,22.83099937438965 -189.61300659179688,-80.86399841308594 -189.61300659179688,-80.86399841308594 C-189.61300659179688,-92.24099731445312 -180.55299377441406,-101.55000305175781 -169.1790008544922,-101.85600280761719 C-169.1790008544922,-101.85600280761719 -37.61899948120117,-105.4000015258789 -37.61899948120117,-105.4000015258789 C-30.570999145507812,-105.58999633789062 -23.52199935913086,-105.04399871826172 -16.58799934387207,-103.7699966430664 C-7.678999900817871,-102.13400268554688 0.9700000286102295,-99.31099700927734 9.128000259399414,-95.3759994506836 C9.128000259399414,-95.3759994506836 167.322998046875,-19.065000534057617 167.322998046875,-19.065000534057617 C173.27499389648438,-16.19499969482422 179.97000122070312,-15.236000061035156 186.48699951171875,-16.322999954223633 C186.48699951171875,-16.322999954223633 193.9949951171875,-17.573999404907227 193.9949951171875,-17.573999404907227z"></path></g></g><g style="display: block;" transform="matrix(1,0,0,1,96.16600036621094,129.13699340820312)" opacity="1"><g opacity="1" transform="matrix(1,0,0,1,2.197000026702881,2.684000015258789)"><path fill="rgb(107,107,107)" fill-opacity="1" d=" M-1.9470000267028809,-2.434000015258789 C-1.9470000267028809,-2.434000015258789 1.9470000267028809,-2.434000015258789 1.9470000267028809,-2.434000015258789 C1.9470000267028809,-2.434000015258789 1.9470000267028809,2.434000015258789 1.9470000267028809,2.434000015258789 C1.9470000267028809,2.434000015258789 -1.9470000267028809,2.434000015258789 -1.9470000267028809,2.434000015258789 C-1.9470000267028809,2.434000015258789 -1.9470000267028809,-2.434000015258789 -1.9470000267028809,-2.434000015258789z"></path></g><g opacity="1" transform="matrix(1,0,0,1,2.197000026702881,39.68199920654297)"><path fill="rgb(107,107,107)" fill-opacity="1" d=" M-1.9470000267028809,-2.434000015258789 C-1.9470000267028809,-2.434000015258789 1.9470000267028809,-2.434000015258789 1.9470000267028809,-2.434000015258789 C1.9470000267028809,-2.434000015258789 1.9470000267028809,2.434000015258789 1.9470000267028809,2.434000015258789 C1.9470000267028809,2.434000015258789 -1.9470000267028809,2.434000015258789 -1.9470000267028809,2.434000015258789 C-1.9470000267028809,2.434000015258789 -1.9470000267028809,-2.434000015258789 -1.9470000267028809,-2.434000015258789z"></path></g><g opacity="1" transform="matrix(1,0,0,1,2.197000026702881,65.96900177001953)"><path fill="rgb(107,107,107)" fill-opacity="1" d=" M-1.9470000267028809,-2.434000015258789 C-1.9470000267028809,-2.434000015258789 1.9470000267028809,-2.434000015258789 1.9470000267028809,-2.434000015258789 C1.9470000267028809,-2.434000015258789 1.9470000267028809,2.434000015258789 1.9470000267028809,2.434000015258789 C1.9470000267028809,2.434000015258789 -1.9470000267028809,2.434000015258789 -1.9470000267028809,2.434000015258789 C-1.9470000267028809,2.434000015258789 -1.9470000267028809,-2.434000015258789 -1.9470000267028809,-2.434000015258789z"></path></g></g><g transform="matrix(1,0,0,1,-0.29998779296875,0.0540008544921875)" opacity="1" style="display: block;"><g opacity="1" transform="matrix(1,0,0,1,333.54998779296875,188.72300720214844)"><path stroke-linecap="butt" stroke-linejoin="miter" fill-opacity="0" stroke-miterlimit="4" stroke="rgb(107,107,107)" stroke-opacity="1" stroke-width="1.3" d=" M-317.15899658203125,13.144000053405762 C-317.15899658203125,13.144000053405762 -317.15899658203125,-81.2979965209961 -317.15899658203125,-81.2979965209961 C-317.15899658203125,-81.2979965209961 -332.25,-84.21900177001953 -332.25,-84.21900177001953 C-332.25,-84.21900177001953 -332.25,-114.4000015258789 -332.25,-114.4000015258789 C-332.25,-114.4000015258789 -308.88299560546875,-119.26899719238281 -308.88299560546875,-119.26899719238281 C-308.88299560546875,-119.26899719238281 -293.30499267578125,-116.83499908447266 -293.30499267578125,-116.83499908447266 C-293.30499267578125,-116.83499908447266 -293.30499267578125,-127.05899810791016 -293.30499267578125,-127.05899810791016 C-293.30499267578125,-127.05899810791016 -297.68701171875,-157.7270050048828 -297.68701171875,-157.7270050048828 C-297.68701171875,-157.7270050048828 -256.3070068359375,-157.7270050048828 -256.3070068359375,-157.7270050048828 C-256.3070068359375,-157.7270050048828 -260.2019958496094,-127.05899810791016 -260.2019958496094,-127.05899810791016 C-260.2019958496094,-127.05899810791016 -260.2019958496094,-116.83499908447266 -260.2019958496094,-116.83499908447266 C-260.2019958496094,-116.83499908447266 -101.98699951171875,-119.26899719238281 -101.98699951171875,-119.26899719238281 C-101.98699951171875,-119.26899719238281 -81.05500030517578,-116.83499908447266 -81.05500030517578,-116.83499908447266 C-81.05500030517578,-116.83499908447266 -60.12099838256836,-110.0199966430664 -60.12099838256836,-110.0199966430664 C-60.12099838256836,-110.0199966430664 103.447998046875,-28.235000610351562 103.447998046875,-28.235000610351562 C109.05599975585938,-31.145000457763672 112.28299713134766,-30.711999893188477 118.0510025024414,-29.208999633789062 C118.0510025024414,-29.208999633789062 119.5979995727539,-30.239999771118164 119.5979995727539,-30.239999771118164 C120.01000213623047,-30.514999389648438 119.81900024414062,-31.1560001373291 119.32499694824219,-31.1560001373291 C119.32499694824219,-31.1560001373291 114.64399719238281,-31.1560001373291 114.64399719238281,-31.1560001373291 C108.31600189208984,-31.1560001373291 107.8290023803711,-45.76100158691406 114.64399719238281,-45.76100158691406 C114.64399719238281,-45.76100158691406 120.97200012207031,-45.76100158691406 120.97200012207031,-45.76100158691406 C120.97200012207031,-45.76100158691406 120.97200012207031,-47.70800018310547 120.97200012207031,-47.70800018310547 C120.97200012207031,-47.70800018310547 126.3280029296875,-59.87799835205078 126.3280029296875,-59.87799835205078 C126.3280029296875,-59.87799835205078 138.01100158691406,-62.3120002746582 138.01100158691406,-62.3120002746582 C138.01100158691406,-62.3120002746582 150.18099975585938,-62.3120002746582 150.18099975585938,-62.3120002746582 C150.18099975585938,-62.3120002746582 155.53700256347656,-53.0629997253418 155.53700256347656,-53.0629997253418 C155.53700256347656,-53.0629997253418 167.218994140625,-55.49700164794922 167.218994140625,-55.49700164794922 C167.218994140625,-55.49700164794922 167.218994140625,-64.74600219726562 167.218994140625,-64.74600219726562 C167.218994140625,-64.74600219726562 165.2729949951172,-64.74600219726562 165.2729949951172,-64.74600219726562 C165.2729949951172,-64.74600219726562 165.2729949951172,-66.69400024414062 165.2729949951172,-66.69400024414062 C165.2729949951172,-66.69400024414062 210.0590057373047,-75.94300079345703 210.0590057373047,-75.94300079345703 C210.0590057373047,-75.94300079345703 237.8070068359375,-74.96900177001953 237.8070068359375,-74.96900177001953 C237.8070068359375,-74.96900177001953 245.11000061035156,-75.94300079345703 245.11000061035156,-75.94300079345703 C245.11000061035156,-75.94300079345703 247.5449981689453,-75.94300079345703 247.5449981689453,-75.94300079345703 C247.5449981689453,-75.94300079345703 247.5449981689453,-73.99600219726562 247.5449981689453,-73.99600219726562 C247.5449981689453,-73.99600219726562 285.5150146484375,-73.02200317382812 285.5150146484375,-73.02200317382812 C285.5150146484375,-73.02200317382812 294.27899169921875,-74.96900177001953 294.27899169921875,-74.96900177001953 C294.27899169921875,-74.96900177001953 297.1990051269531,-74.96900177001953 297.1990051269531,-74.96900177001953 C297.1990051269531,-74.96900177001953 297.1990051269531,-73.02200317382812 297.1990051269531,-73.02200317382812 C297.1990051269531,-73.02200317382812 332.25,-71.56199645996094 332.25,-71.56199645996094 C332.25,-71.56199645996094 332.25,-70.10099792480469 332.25,-70.10099792480469 C332.25,-70.10099792480469 328.3550109863281,-68.64099884033203 328.3550109863281,-68.64099884033203 C328.3550109863281,-68.64099884033203 328.3550109863281,10.710000038146973 328.3550109863281,10.710000038146973 C328.3550109863281,10.710000038146973 324.947998046875,12.170000076293945 324.947998046875,12.170000076293945 C324.947998046875,12.170000076293945 303.52801513671875,36.99800109863281 303.52801513671875,36.99800109863281 C303.52801513671875,36.99800109863281 303.52801513671875,82.27100372314453 303.52801513671875,82.27100372314453 C303.52801513671875,82.27100372314453 306.6679992675781,83.88600158691406 305.9620056152344,85.19200134277344 C305.4739990234375,86.09300231933594 303.52801513671875,86.16600036621094 303.52801513671875,86.16600036621094 C303.52801513671875,86.16600036621094 302.5530090332031,133.38699340820312 302.5530090332031,133.38699340820312 C302.5530090332031,133.38699340820312 264.0950012207031,157.7270050048828 264.0950012207031,157.7270050048828 C264.0950012207031,157.7270050048828 253.8730010986328,155.781005859375 253.8730010986328,155.781005859375 C253.8730010986328,155.781005859375 253.8730010986328,148.47900390625 253.8730010986328,148.47900390625 C253.8730010986328,148.47900390625 252.13099670410156,151.09100341796875 252.13099670410156,151.09100341796875 C251.35800170898438,152.25 250.28599548339844,153.19200134277344 249.04100036621094,153.81500244140625 C247.75100708007812,154.4600067138672 246.29800415039062,154.75100708007812 244.86000061035156,154.64500427246094 C244.86000061035156,154.64500427246094 237.87399291992188,154.1269989013672 237.87399291992188,154.1269989013672 C235.37899780273438,153.94200134277344 233.11399841308594,152.6009979248047 231.7530059814453,150.5019989013672 C231.7530059814453,150.5019989013672 222.22999572753906,135.82200622558594 222.22999572753906,135.82200622558594 C222.22999572753906,135.82200622558594 203.7310028076172,124.13700103759766 203.7310028076172,124.13700103759766 C203.7310028076172,124.13700103759766 197.4029998779297,128.0330047607422 197.4029998779297,128.0330047607422 C197.4029998779297,128.0330047607422 188.32400512695312,140.45599365234375 188.32400512695312,140.45599365234375 C188.21299743652344,140.60800170898438 188.0570068359375,140.7259979248047 187.8820037841797,140.79600524902344 C185.1909942626953,141.85499572753906 182.27699279785156,142.32899475097656 179.38900756835938,142.16400146484375 C179.38900756835938,142.16400146484375 173.09500122070312,141.8040008544922 173.09500122070312,141.8040008544922 C171.54100036621094,141.71600341796875 170.11500549316406,140.90699768066406 169.24200439453125,139.61700439453125 C169.24200439453125,139.61700439453125 160.40499877929688,126.5719985961914 160.40499877929688,126.5719985961914 C160.40499877929688,126.5719985961914 143.8520050048828,116.3479995727539 143.8520050048828,116.3479995727539 C143.8520050048828,116.3479995727539 138.4980010986328,118.78299713134766 138.4980010986328,118.78299713134766 C138.4980010986328,118.78299713134766 129.73599243164062,132.41400146484375 129.73599243164062,132.41400146484375 C126.51300048828125,133.3800048828125 123.1510009765625,133.79200744628906 119.79100036621094,133.6320037841797 C119.79100036621094,133.6320037841797 116.99500274658203,133.49899291992188 116.99500274658203,133.49899291992188 C115.50599670410156,133.42799377441406 114.12699890136719,132.69700622558594 113.23300170898438,131.5050048828125 C113.23300170898438,131.5050048828125 102.96099853515625,117.80899810791016 102.96099853515625,117.80899810791016 C102.96099853515625,117.80899810791016 99.06600189208984,116.83499908447266 99.06600189208984,116.83499908447266 C99.06600189208984,116.83499908447266 100.04000091552734,115.375 100.04000091552734,115.375 C100.04000091552734,115.375 88.35700225830078,108.0719985961914 88.35700225830078,108.0719985961914 C88.35700225830078,108.0719985961914 83.9739990234375,110.0199966430664 83.9739990234375,110.0199966430664 C83.9739990234375,110.0199966430664 75.6989974975586,123.16600036621094 75.6989974975586,123.16600036621094 C72.14399719238281,123.81099700927734 68.52100372314453,123.97899627685547 64.9219970703125,123.66600036621094 C64.9219970703125,123.66600036621094 61.4119987487793,123.36100006103516 61.4119987487793,123.36100006103516 C59.98400115966797,123.23699951171875 58.694000244140625,122.45800018310547 57.91899871826172,121.25199890136719 C57.91899871826172,121.25199890136719 50.38399887084961,109.53299713134766 50.38399887084961,109.53299713134766 C50.38399887084961,109.53299713134766 48.92399978637695,117.80899810791016 48.92399978637695,117.80899810791016 C46.35499954223633,118.77200317382812 43.617000579833984,119.20999908447266 40.874000549316406,119.09600067138672 C40.874000549316406,119.09600067138672 36.066001892089844,118.89600372314453 36.066001892089844,118.89600372314453 C34.52299880981445,118.83200073242188 33.28099822998047,117.60600280761719 33.19599914550781,116.06500244140625 C33.19599914550781,116.06500244140625 32.91299819946289,110.97899627685547 32.91299819946289,110.97899627685547 C32.87900161743164,110.35600280761719 32.650001525878906,109.75800323486328 32.25899887084961,109.2699966430664 C32.25899887084961,109.2699966430664 28.96500015258789,105.1510009765625 28.96500015258789,105.1510009765625 C28.96500015258789,105.1510009765625 2.190999984741211,115.375 2.190999984741211,115.375 C2.190999984741211,115.375 -5.111999988555908,112.45500183105469 -5.111999988555908,112.45500183105469 C-5.111999988555908,112.45500183105469 -5.111999988555908,0 -5.111999988555908,0 C-5.111999988555908,0 20.690000534057617,-4.868000030517578 20.690000534057617,-4.868000030517578 C20.690000534057617,-4.868000030517578 20.690000534057617,-7.789000034332275 20.690000534057617,-7.789000034332275 C20.690000534057617,-7.789000034332275 36.266998291015625,-11.684000015258789 36.266998291015625,-11.684000015258789 C36.266998291015625,-11.684000015258789 67.91000366210938,-7.789000034332275 67.91000366210938,-7.789000034332275 C67.91000366210938,-7.789000034332275 -70.83100128173828,-78.37699890136719 -70.83100128173828,-78.37699890136719 C-70.83100128173828,-78.37699890136719 -89.33000183105469,-84.21900177001953 -89.33000183105469,-84.21900177001953 C-89.33000183105469,-84.21900177001953 -104.90899658203125,-86.65299987792969 -104.90899658203125,-86.65299987792969 C-104.90899658203125,-86.65299987792969 -236.8350067138672,-84.21900177001953 -236.8350067138672,-84.21900177001953 C-236.8350067138672,-84.21900177001953 -236.8350067138672,13.144000053405762 -236.8350067138672,13.144000053405762 C-236.8350067138672,13.144000053405762 -268.9649963378906,101.25700378417969 -268.9649963378906,101.25700378417969 C-268.9649963378906,101.25700378417969 -280.1610107421875,103.20500183105469 -280.1610107421875,103.20500183105469 C-280.1610107421875,103.20500183105469 -317.15899658203125,13.144000053405762 -317.15899658203125,13.144000053405762z M-317.15899658203125,13.144000053405762 C-317.15899658203125,13.144000053405762 -317.15899658203125,118.78299713134766 -317.15899658203125,118.78299713134766"></path></g><g opacity="1" transform="matrix(1,0,0,1,374.6839904785156,309.6960144042969)"><path stroke-linecap="butt" stroke-linejoin="miter" fill-opacity="0" stroke-miterlimit="4" stroke="rgb(107,107,107)" stroke-opacity="1" stroke-width="1.3" d=" M-7.301000118255615,-2.677000045776367 C-7.301000118255615,-2.677000045776367 -13.630999565124512,-0.7310000061988831 -10.222999572753906,1.2170000076293945 C-6.815000057220459,3.1640000343322754 6.816999912261963,3.1640000343322754 10.223999977111816,1.2170000076293945 C13.630999565124512,-0.7310000061988831 7.789000034332275,-3.1640000343322754 7.789000034332275,-3.1640000343322754"></path></g><g opacity="1" transform="matrix(1,0,0,1,400.9410095214844,314.7860107421875)"><path stroke-linecap="butt" stroke-linejoin="miter" fill-opacity="0" stroke-miterlimit="4" stroke="rgb(107,107,107)" stroke-opacity="1" stroke-width="1.3" d=" M-7.269999980926514,-2.8980000019073486 C-7.269999980926514,-2.8980000019073486 -14.732000350952148,-0.640999972820282 -11.048999786376953,1.128000020980835 C-7.366000175476074,2.8989999294281006 7.366000175476074,2.8989999294281006 11.048999786376953,1.128000020980835 C14.732000350952148,-0.640999972820282 7.821000099182129,-2.8980000019073486 7.821000099182129,-2.8980000019073486"></path></g><g opacity="1" transform="matrix(1,0,0,1,455.5199890136719,324.2980041503906)"><path stroke-linecap="butt" stroke-linejoin="miter" fill-opacity="0" stroke-miterlimit="4" stroke="rgb(107,107,107)" stroke-opacity="1" stroke-width="1.3" d=" M-6.8379998207092285,-2.6760001182556152 C-6.8379998207092285,-2.6760001182556152 -14.75,-0.699999988079071 -11.062999725341797,1.2300000190734863 C-7.375,3.1610000133514404 7.375999927520752,3.1610000133514404 11.062999725341797,1.2300000190734863 C14.75100040435791,-0.699999988079071 7.830999851226807,-3.1610000133514404 7.830999851226807,-3.1610000133514404"></path></g><g opacity="1" transform="matrix(1,0,0,1,513.4010009765625,333.10198974609375)"><path stroke-linecap="butt" stroke-linejoin="miter" fill-opacity="0" stroke-miterlimit="4" stroke="rgb(107,107,107)" stroke-opacity="1" stroke-width="1.3" d=" M-8.24899959564209,-2.7170000076293945 C-8.24899959564209,-2.7170000076293945 -14.222999572753906,-1.3049999475479126 -10.668000221252441,0.9490000009536743 C-7.111000061035156,3.2019999027252197 7.110000133514404,3.2019999027252197 10.664999961853027,0.9490000009536743 C14.222000122070312,-1.3049999475479126 6.8420000076293945,-3.203000068664551 6.8420000076293945,-3.203000068664551"></path></g><g opacity="1" transform="matrix(1,0,0,1,574.6840209960938,344.2590026855469)"><path stroke-linecap="butt" stroke-linejoin="miter" fill-opacity="0" stroke-miterlimit="4" stroke="rgb(107,107,107)" stroke-opacity="1" stroke-width="1.3" d=" M-7.918000221252441,-3.1640000343322754 C-7.918000221252441,-3.1640000343322754 -14.123000144958496,-1.7510000467300415 -10.428999900817871,0.5019999742507935 C-6.735000133514404,2.755000114440918 9.340999603271484,3.1640000343322754 11.732000350952148,0.5019999742507935 C14.123000144958496,-2.1619999408721924 9.817000389099121,-2.677999973297119 9.817000389099121,-2.677999973297119"></path></g><g opacity="1" transform="matrix(1,0,0,1,581.5819702148438,163.65199279785156)"><path stroke-linecap="butt" stroke-linejoin="miter" fill-opacity="0" stroke-miterlimit="4" stroke="rgb(107,107,107)" stroke-opacity="1" stroke-width="1.3" d=" M-80.81099700927734,-39.67499923706055 C-80.81099700927734,-39.67499923706055 -59.87799835205078,-38.34600067138672 -59.87799835205078,-38.34600067138672 M41.86600112915039,-31.88599967956543 C41.86600112915039,-31.88599967956543 80.81099700927734,-43.56999969482422 80.81099700927734,-43.56999969482422 M41.86600112915039,-31.88599967956543 C41.86600112915039,-31.88599967956543 -13.145000457763672,-35.37900161743164 -13.145000457763672,-35.37900161743164 M41.86600112915039,-31.88599967956543 C41.86600112915039,-31.88599967956543 41.86600112915039,49.89799880981445 41.86600112915039,49.89799880981445 C41.86600112915039,49.89799880981445 76.91600036621094,37.24100112915039 76.91600036621094,37.24100112915039 M-52.0890007019043,-37.85200119018555 C-52.0890007019043,-37.85200119018555 -59.87799835205078,-38.34600067138672 -59.87799835205078,-38.34600067138672 M-52.0890007019043,-37.85200119018555 C-52.0890007019043,-37.85200119018555 -20.445999145507812,-35.84299850463867 -20.445999145507812,-35.84299850463867 M-52.0890007019043,-37.85200119018555 C-52.0890007019043,-37.85200119018555 -0.4869999885559082,-48.92499923706055 -0.4869999885559082,-48.92499923706055 M-59.87799835205078,-38.34600067138672 C-59.87799835205078,-38.34600067138672 -10.223999977111816,-49.89799880981445 -10.223999977111816,-49.89799880981445 M37.483001708984375,-47.95100021362305 C37.483001708984375,-47.95100021362305 -20.445999145507812,-35.84299850463867 -20.445999145507812,-35.84299850463867 M-20.445999145507812,-35.84299850463867 C-20.445999145507812,-35.84299850463867 -13.145000457763672,-35.37900161743164 -13.145000457763672,-35.37900161743164 M49.167999267578125,-47.95100021362305 C49.167999267578125,-47.95100021362305 -13.145000457763672,-35.37900161743164 -13.145000457763672,-35.37900161743164"></path></g><g opacity="1" transform="matrix(1,0,0,1,477.8900146484375,152.69900512695312)"><path stroke-linecap="butt" stroke-linejoin="miter" fill-opacity="0" stroke-miterlimit="4" stroke="rgb(107,107,107)" stroke-opacity="1" stroke-width="1.3" d=" M5.841000080108643,-26.288000106811523 C5.841000080108643,-26.288000106811523 -6.328999996185303,-23.854000091552734 -6.328999996185303,-23.854000091552734 M-6.328999996185303,-23.854000091552734 C-6.328999996185303,-23.854000091552734 -11.196999549865723,-10.710000038146973 -11.196999549865723,-10.710000038146973 M-6.328999996185303,-23.854000091552734 C-6.328999996185303,-23.854000091552734 -17.525999069213867,-23.854000091552734 -17.525999069213867,-23.854000091552734 M-11.196999549865723,-10.710000038146973 C-11.196999549865723,-10.710000038146973 -11.196999549865723,7.302000045776367 -11.196999549865723,7.302000045776367 C-11.196999549865723,7.302000045776367 -23.367000579833984,4.868000030517578 -23.367000579833984,4.868000030517578 C-23.367000579833984,4.868000030517578 -23.367000579833984,-10.710000038146973 -23.367000579833984,-10.710000038146973 C-23.367000579833984,-10.710000038146973 -11.196999549865723,-10.710000038146973 -11.196999549865723,-10.710000038146973z M23.367000579833984,26.288000106811523 C23.367000579833984,26.288000106811523 7.789000034332275,25.31399917602539 7.789000034332275,25.31399917602539 C7.789000034332275,25.31399917602539 10.222000122070312,18.985000610351562 10.222000122070312,18.985000610351562 C10.222000122070312,18.985000610351562 23.367000579833984,14.604000091552734 23.367000579833984,14.604000091552734 C23.367000579833984,14.604000091552734 23.367000579833984,26.288000106811523 23.367000579833984,26.288000106811523z"></path></g><g opacity="1" transform="matrix(1,0,0,1,443.5690002441406,163.1649932861328)"><path stroke-linecap="butt" stroke-linejoin="miter" fill-opacity="0" stroke-miterlimit="4" stroke="rgb(107,107,107)" stroke-opacity="1" stroke-width="1.3" d=" M45.516998291015625,-27.503999710083008 C45.516998291015625,-27.503999710083008 40.1609992980957,-26.042999267578125 40.1609992980957,-26.042999267578125 C37.57500076293945,-17.445999145507812 35.15999984741211,-14.411999702453613 29.45199966430664,-11.439000129699707 C29.45199966430664,-11.439000129699707 29.45199966430664,-7.545000076293945 29.45199966430664,-7.545000076293945 C36.38600158691406,-4.558000087738037 38.4739990234375,-0.8450000286102295 40.1609992980957,8.032999992370605 C40.1609992980957,8.032999992370605 44.542999267578125,8.520000457763672 44.542999267578125,8.520000457763672 M-43.08300018310547,17.770000457763672 C-45.516998291015625,15.821999549865723 -28.479000091552734,23.611000061035156 -28.479000091552734,23.611000061035156 C-28.479000091552734,23.611000061035156 -12.413999557495117,27.5049991607666 -12.413999557495117,27.5049991607666 C-12.413999557495117,27.5049991607666 5.111000061035156,27.5049991607666 5.111000061035156,27.5049991607666 C5.111000061035156,27.5049991607666 10.95300006866455,27.5049991607666 10.95300006866455,27.5049991607666 C18.493999481201172,27.138999938964844 24.097999572753906,4.138999938964844 8.032999992370605,-3.6500000953674316"></path></g><g opacity="1" transform="matrix(1,0,0,1,414.8479919433594,191.6439971923828)"><path stroke-linecap="butt" stroke-linejoin="miter" fill-opacity="0" stroke-miterlimit="4" stroke="rgb(107,107,107)" stroke-opacity="1" stroke-width="1.3" d=" M-86.40899658203125,-2.9200000762939453 C-86.40899658203125,-2.9200000762939453 7.059000015258789,5.242000102996826 7.059000015258789,5.242000102996826 M7.059000015258789,-2.9200000762939453 C7.059000015258789,-2.9200000762939453 7.059000015258789,5.242000102996826 7.059000015258789,5.242000102996826 M7.059000015258789,5.242000102996826 C7.059000015258789,5.242000102996826 41.1349983215332,8.217000007629395 41.1349983215332,8.217000007629395 M41.1349983215332,8.217000007629395 C41.1349983215332,8.217000007629395 86.40799713134766,12.170999526977539 86.40799713134766,12.170999526977539 C86.40799713134766,12.170999526977539 86.40799713134766,-4.381999969482422 86.40799713134766,-4.381999969482422 M41.1349983215332,8.217000007629395 C41.1349983215332,8.217000007629395 41.1349983215332,-0.9729999899864197 41.1349983215332,-0.9729999899864197 C41.1349983215332,-0.9729999899864197 86.40799713134766,-12.170999526977539 86.40799713134766,-12.170999526977539 C86.40799713134766,-12.170999526977539 86.40799713134766,-4.381999969482422 86.40799713134766,-4.381999969482422 M41.1349983215332,8.217000007629395 C41.1349983215332,8.217000007629395 86.40799713134766,-4.381999969482422 86.40799713134766,-4.381999969482422"></path></g><g opacity="1" transform="matrix(1,0,0,1,492.2510070800781,152.21099853515625)"><path stroke-linecap="butt" stroke-linejoin="miter" fill-opacity="0" stroke-miterlimit="4" stroke="rgb(107,107,107)" stroke-opacity="1" stroke-width="1.3" d=" M-8.519000053405762,-15.09000015258789 C-8.519000053405762,-15.09000015258789 4.138000011444092,0.9729999899864197 4.138000011444092,0.9729999899864197 M4.138000011444092,0.9729999899864197 C4.138000011444092,0.9729999899864197 4.138000011444092,12.657999992370605 4.138000011444092,12.657999992370605 C4.138000011444092,12.657999992370605 -8.519000053405762,18.986000061035156 -8.519000053405762,18.986000061035156 M4.138000011444092,0.9729999899864197 C4.138000011444092,0.9729999899864197 8.519000053405762,-0.4860000014305115 8.519000053405762,-0.4860000014305115 C8.519000053405762,-0.4860000014305115 8.519000053405762,-18.986000061035156 8.519000053405762,-18.986000061035156"></path></g><g opacity="1" transform="matrix(1,0,0,1,524.8679809570312,208.9250030517578)"><path stroke-linecap="butt" stroke-linejoin="miter" fill-opacity="0" stroke-miterlimit="4" stroke="rgb(107,107,107)" stroke-opacity="1" stroke-width="1.3" d=" M16.79599952697754,-2.677999973297119 C16.79599952697754,-2.677999973297119 22.63800048828125,-5.111999988555908 22.63800048828125,-5.111999988555908 C22.63800048828125,-5.111999988555908 22.63800048828125,-18.256000518798828 22.63800048828125,-18.256000518798828 C22.63800048828125,-18.256000518798828 6.571000099182129,-19.229999542236328 6.571000099182129,-19.229999542236328 C6.571000099182129,-19.229999542236328 -10.95199966430664,-14.847999572753906 -10.95199966430664,-14.847999572753906 C-10.95199966430664,-14.847999572753906 -19.71500015258789,-15.335000038146973 -21.177000045776367,-15.335000038146973 C-22.63800048828125,-15.335000038146973 -22.636999130249023,-5.111999988555908 -21.177000045776367,-5.111999988555908 C-21.177000045776367,-5.111999988555908 -16.79400062561035,-5.111999988555908 -16.79400062561035,-5.111999988555908 C-16.79400062561035,-5.111999988555908 -16.79400062561035,-2.677999973297119 -16.79400062561035,-2.677999973297119 C-16.79400062561035,-2.677999973297119 -12.413000106811523,-2.677999973297119 -12.413000106811523,-2.677999973297119 C-12.413000106811523,-2.677999973297119 -9.979000091552734,-5.111999988555908 -9.979000091552734,-5.111999988555908 C-9.979000091552734,-5.111999988555908 -9.979000091552734,17.2810001373291 -9.979000091552734,17.2810001373291 C-9.979000091552734,17.2810001373291 6.571000099182129,19.229000091552734 6.571000099182129,19.229000091552734 C6.571000099182129,19.229000091552734 11.440999984741211,17.2810001373291 11.440999984741211,17.2810001373291 C11.440999984741211,17.2810001373291 16.79599952697754,-2.677999973297119 16.79599952697754,-2.677999973297119z"></path></g><g opacity="1" transform="matrix(1,0,0,1,479.8370056152344,272.4549865722656)"><path stroke-linecap="butt" stroke-linejoin="miter" fill-opacity="0" stroke-miterlimit="4" stroke="rgb(107,107,107)" stroke-opacity="1" stroke-width="1.3" d=" M144.0959930419922,-59.39099884033203 C144.0959930419922,-59.39099884033203 130.9530029296875,-45.76100158691406 130.9530029296875,-45.76100158691406 C130.9530029296875,-45.76100158691406 118.2959976196289,-13.144000053405762 118.2959976196289,-13.144000053405762 C118.2959976196289,-13.144000053405762 118.2959976196289,73.50800323486328 118.2959976196289,73.50800323486328 M107.58599853515625,66.20600128173828 C107.58599853515625,66.20600128173828 107.58599853515625,-48.68199920654297 107.58599853515625,-48.68199920654297 C107.58599853515625,-48.68199920654297 58.90599822998047,-53.54999923706055 58.90599822998047,-53.54999923706055 M34.56399917602539,-56.47100067138672 C34.56399917602539,-56.47100067138672 -144.0959930419922,-73.50900268554688 -144.0959930419922,-73.50900268554688 C-144.0959930419922,-73.50900268554688 -144.0959930419922,31.64299964904785 -144.0959930419922,31.64299964904785"></path></g><g opacity="1" transform="matrix(1,0,0,1,0,0)"><path stroke-linecap="butt" stroke-linejoin="miter" fill-opacity="0" stroke-miterlimit="4" stroke="rgb(107,107,107)" stroke-opacity="1" stroke-width="1.3" d=" M538.7410278320312,126.89800262451172 C538.7410278320312,126.89800262451172 538.7410278320312,190.18299865722656 538.7410278320312,190.18299865722656"></path></g><g opacity="1" transform="matrix(1,0,0,1,582.7979736328125,171.927001953125)"><path stroke-linecap="butt" stroke-linejoin="miter" fill-opacity="0" stroke-miterlimit="4" stroke="rgb(107,107,107)" stroke-opacity="1" stroke-width="1.3" d=" M14.362000465393066,-41.62200164794922 C14.362000465393066,-41.62200164794922 8.032999992370605,-36.75299835205078 8.032999992370605,-36.75299835205078 C8.032999992370605,-36.75299835205078 8.032999992370605,38.21699905395508 8.032999992370605,38.21699905395508 M40.64799880981445,41.62200164794922 C40.64799880981445,41.62200164794922 -40.64799880981445,34.32099914550781 -40.64799880981445,34.32099914550781"></path></g><g opacity="1" transform="matrix(1,0,0,1,617.9509887695312,244.7429962158203)"><path stroke-linecap="butt" stroke-linejoin="miter" fill-opacity="0" stroke-miterlimit="4" stroke="rgb(107,107,107)" stroke-opacity="1" stroke-width="1.3" d=" M4.033999919891357,-1.9830000400543213 C4.033999919891357,-1.9830000400543213 -8.428000450134277,-10.14799976348877 -8.428000450134277,-10.14799976348877 C-9.11299991607666,-10.597000122070312 -8.996000289916992,-11.63599967956543 -8.227999687194824,-11.920999526977539 C-8.227999687194824,-11.920999526977539 6.440000057220459,-17.3700008392334 6.440000057220459,-17.3700008392334 C6.76200008392334,-17.489999771118164 7.119999885559082,-17.434999465942383 7.39300012588501,-17.22800064086914 C7.39300012588501,-17.22800064086914 17.746999740600586,-9.361000061035156 17.746999740600586,-9.361000061035156 C18.358999252319336,-8.894000053405762 18.238000869750977,-7.939000129699707 17.527999877929688,-7.640999794006348 C17.527999877929688,-7.640999794006348 4.033999919891357,-1.9830000400543213 4.033999919891357,-1.9830000400543213z M4.033999919891357,-1.9830000400543213 C4.033999919891357,-1.9830000400543213 -9.595999717712402,17.489999771118164 -9.595999717712402,17.489999771118164 C-9.595999717712402,17.489999771118164 -18.358999252319336,10.67300033569336 -18.358999252319336,10.67300033569336"></path></g><g opacity="1" transform="matrix(1,0,0,1,622.7169799804688,267.343994140625)"><path stroke-linecap="butt" stroke-linejoin="miter" fill-opacity="0" stroke-miterlimit="4" stroke="rgb(107,107,107)" stroke-opacity="1" stroke-width="1.3" d=" M-14.362000465393066,-5.111999988555908 C-14.362000465393066,-5.111999988555908 0.7289999723434448,5.111999988555908 0.7289999723434448,5.111999988555908 C0.7289999723434448,5.111999988555908 14.361000061035156,3.6510000228881836 14.361000061035156,3.6510000228881836"></path></g><g opacity="1" transform="matrix(1,0,0,1,530.9530029296875,193.34800720214844)"><path stroke-linecap="butt" stroke-linejoin="miter" fill-opacity="0" stroke-miterlimit="4" stroke="rgb(107,107,107)" stroke-opacity="1" stroke-width="1.3" d=" M16.551000595092773,-2.677000045776367 C16.551000595092773,-2.677000045776367 0.4869999885559082,2.677999973297119 0.4869999885559082,2.677999973297119 M0.4869999885559082,2.677999973297119 C0.4869999885559082,2.677999973297119 -16.552000045776367,0.7310000061988831 -16.552000045776367,0.7310000061988831 M0.4869999885559082,2.677999973297119 C0.4869999885559082,2.677999973297119 0.4869999885559082,34.80799865722656 0.4869999885559082,34.80799865722656"></path></g><g opacity="1" transform="matrix(1,0,0,1,461.58099365234375,280)"><path stroke-linecap="butt" stroke-linejoin="miter" fill-opacity="0" stroke-miterlimit="4" stroke="rgb(107,107,107)" stroke-opacity="1" stroke-width="1.3" d=" M-125.84100341796875,-30.426000595092773 C-125.84100341796875,-30.426000595092773 125.84100341796875,0.7289999723434448 125.84100341796875,0.7289999723434448 M-125.84100341796875,-27.01799964904785 C-125.84100341796875,-27.01799964904785 125.84100341796875,4.138000011444092 125.84100341796875,4.138000011444092 M125.84100341796875,13.387999534606934 C125.84100341796875,13.387999534606934 -124.86699676513672,-17.2810001373291 -124.86699676513672,-17.2810001373291 C-124.86699676513672,-17.2810001373291 -113.66999816894531,1.2170000076293945 -113.66999816894531,1.2170000076293945 C-113.66999816894531,1.2170000076293945 -99.06600189208984,13.87399959564209 -99.06600189208984,13.87399959564209 C-99.06600189208984,13.87399959564209 -50.87099838256836,21.177000045776367 -50.87099838256836,21.177000045776367 C-50.87099838256836,21.177000045776367 -44.055999755859375,18.742000579833984 -44.055999755859375,18.742000579833984 M-25.06999969482422,26.5310001373291 C-25.06999969482422,26.5310001373291 3.6519999504089355,30.427000045776367 3.6519999504089355,30.427000045776367 C3.6519999504089355,30.427000045776367 12.413999557495117,26.5310001373291 12.413999557495117,26.5310001373291"></path></g><g opacity="1" transform="matrix(1,0,0,1,467.6669921875,293.1449890136719)"><path stroke-linecap="butt" stroke-linejoin="miter" fill-opacity="0" stroke-miterlimit="4" stroke="rgb(107,107,107)" stroke-opacity="1" stroke-width="1.3" d=" M26.288000106811523,22.14900016784668 C26.288000106811523,22.14900016784668 58.90399932861328,26.531999588012695 58.90399932861328,26.531999588012695 C58.90399932861328,26.531999588012695 63.77299880981445,23.124000549316406 63.77299880981445,23.124000549316406 M-97.36199951171875,-26.531999588012695 C-97.36199951171875,-26.531999588012695 -84.21800231933594,-7.059000015258789 -84.21800231933594,-7.059000015258789 M-40.404998779296875,-19.229999542236328 C-40.404998779296875,-19.229999542236328 -27.74799919128418,1.7039999961853027 -27.74799919128418,1.7039999961853027 M15.092000007629395,-12.413000106811523 C15.092000007629395,-12.413000106811523 27.749000549316406,9.979000091552734 27.749000549316406,9.979000091552734 M78.37699890136719,-4.624000072479248 C78.37699890136719,-4.624000072479248 89.5739974975586,19.22800064086914 89.5739974975586,19.22800064086914 M119.75599670410156,23.610000610351562 C119.75599670410156,23.610000610351562 -119.75599670410156,-11.927000045776367 -119.75599670410156,-11.927000045776367"></path></g><g opacity="1" transform="matrix(1,0,0,1,0,0)"><path stroke-linecap="butt" stroke-linejoin="miter" fill-opacity="0" stroke-miterlimit="4" stroke="rgb(107,107,107)" stroke-opacity="1" stroke-width="1.3" d=" M342.55499267578125,234.48300170898438 C342.55499267578125,234.48300170898438 342.55499267578125,240.32400512695312 342.55499267578125,240.32400512695312 M369.8160095214844,237.89100646972656 C369.8160095214844,237.89100646972656 369.8160095214844,243.73300170898438 369.8160095214844,243.73300170898438 M387.8280029296875,240.32400512695312 C387.8280029296875,240.32400512695312 387.8280029296875,246.16700744628906 387.8280029296875,246.16700744628906 M416.0639953613281,243.73300170898438 C416.0639953613281,243.73300170898438 416.0639953613281,249.57400512695312 416.0639953613281,249.57400512695312 M435.04901123046875,246.16700744628906 C435.04901123046875,246.16700744628906 435.04901123046875,252.00900268554688 435.04901123046875,252.00900268554688 M466.20599365234375,249.57400512695312 C466.20599365234375,249.57400512695312 466.20599365234375,255.4149932861328 466.20599365234375,255.4149932861328 M486.6520080566406,252.00900268554688 C486.6520080566406,252.00900268554688 486.6520080566406,257.8500061035156 486.6520080566406,257.8500061035156 M519.2680053710938,255.4149932861328 C519.2680053710938,255.4149932861328 519.2680053710938,261.25799560546875 519.2680053710938,261.25799560546875 M540.68798828125,257.8500061035156 C540.68798828125,257.8500061035156 540.68798828125,263.6929931640625 540.68798828125,263.6929931640625 M574.7659912109375,262.718994140625 C574.7659912109375,262.718994140625 574.7659912109375,268.55999755859375 574.7659912109375,268.55999755859375"></path></g><g opacity="1" transform="matrix(1,0,0,1,66.53199768066406,229.61500549316406)"><path stroke-linecap="butt" stroke-linejoin="miter" fill-opacity="0" stroke-miterlimit="4" stroke="rgb(107,107,107)" stroke-opacity="1" stroke-width="1.3" d=" M34.56399917602539,-100.28299713134766 C34.56399917602539,-100.28299713134766 34.56399917602539,52.0890007019043 34.56399917602539,52.0890007019043 M34.56399917602539,81.78500366210938 C34.56399917602539,81.78500366210938 34.56399917602539,55.98400115966797 34.56399917602539,55.98400115966797 M-31.64299964904785,68.15399932861328 C-31.64299964904785,68.15399932861328 -31.64299964904785,93.46700286865234 -31.64299964904785,93.46700286865234 C-31.64299964904785,93.46700286865234 -33.104000091552734,94.9280014038086 -33.104000091552734,94.9280014038086 C-33.104000091552734,94.9280014038086 -34.56399917602539,93.46700286865234 -34.56399917602539,93.46700286865234 C-34.56399917602539,93.46700286865234 -34.56399917602539,-94.9280014038086 -34.56399917602539,-94.9280014038086 C-34.56399917602539,-94.9280014038086 -31.64299964904785,-93.46900177001953 -31.64299964904785,-93.46900177001953 C-31.64299964904785,-93.46900177001953 -31.64299964904785,68.15399932861328 -31.64299964904785,68.15399932861328z M-31.64299964904785,68.15399932861328 C-31.64299964904785,68.15399932861328 34.56399917602539,55.98400115966797 34.56399917602539,55.98400115966797 M34.56399917602539,55.98400115966797 C34.56399917602539,55.98400115966797 34.56399917602539,52.0890007019043 34.56399917602539,52.0890007019043 M34.56399917602539,52.0890007019043 C34.56399917602539,52.0890007019043 2.9210000038146973,47.707000732421875 2.9210000038146973,47.707000732421875"></path></g><g opacity="1" transform="matrix(1,0,0,1,67.99199676513672,253.71299743652344)"><path stroke-linecap="butt" stroke-linejoin="miter" fill-opacity="0" stroke-miterlimit="4" stroke="rgb(107,107,107)" stroke-opacity="1" stroke-width="1.3" d=" M-33.10300064086914,8.519000053405762 C-33.10300064086914,8.519000053405762 33.10300064086914,-2.677999973297119 33.10300064086914,-2.677999973297119 C33.10300064086914,-2.677999973297119 33.10300064086914,-5.5980000495910645 33.10300064086914,-5.5980000495910645 C33.10300064086914,-5.5980000495910645 12.656999588012695,-8.519000053405762 12.656999588012695,-8.519000053405762"></path></g><g opacity="1" transform="matrix(1,0,0,1,68.23699951171875,289.25)"><path stroke-linecap="butt" stroke-linejoin="miter" fill-opacity="0" stroke-miterlimit="4" stroke="rgb(107,107,107)" stroke-opacity="1" stroke-width="1.3" d=" M-32.86000061035156,6.085000038146973 C-32.86000061035156,6.085000038146973 32.86000061035156,-6.085000038146973 32.86000061035156,-6.085000038146973"></path></g><g opacity="1" transform="matrix(1,0,0,1,68.23699951171875,253.71299743652344)"><path stroke-linecap="butt" stroke-linejoin="miter" fill-opacity="0" stroke-miterlimit="4" stroke="rgb(107,107,107)" stroke-opacity="1" stroke-width="1.3" d=" M-32.86000061035156,5.5980000495910645 C-32.86000061035156,5.5980000495910645 32.86000061035156,-5.5980000495910645 32.86000061035156,-5.5980000495910645"></path></g><g opacity="1" transform="matrix(1,0,0,1,47.06100082397461,52.902000427246094)"><path stroke-linecap="butt" stroke-linejoin="miter" fill-opacity="0" stroke-miterlimit="4" stroke="rgb(107,107,107)" stroke-opacity="1" stroke-width="1.3" d=" M-45.7599983215332,51.60200119018555 C-45.7599983215332,51.60200119018555 -21.906999588012695,47.22100067138672 -21.906999588012695,47.22100067138672 C-21.906999588012695,47.22100067138672 9.24899959564209,51.60200119018555 9.24899959564209,51.60200119018555 C9.24899959564209,51.60200119018555 9.24899959564209,19.959999084472656 9.24899959564209,19.959999084472656 M9.24899959564209,19.959999084472656 C9.24899959564209,19.959999084472656 -6.815999984741211,18.986000061035156 -6.815999984741211,18.986000061035156 M9.24899959564209,19.959999084472656 C9.24899959564209,19.959999084472656 26.28700065612793,18.986000061035156 26.28700065612793,18.986000061035156 M-28.236000061035156,-39.43199920654297 C-28.236000061035156,-39.43199920654297 45.7599983215332,-39.43199920654297 45.7599983215332,-39.43199920654297 C45.7599983215332,-39.43199920654297 9.248000144958496,-51.60200119018555 9.248000144958496,-51.60200119018555 C9.248000144958496,-51.60200119018555 -28.236000061035156,-39.43199920654297 -28.236000061035156,-39.43199920654297z"></path></g><g opacity="1" transform="matrix(1,0,0,1,74.3219985961914,22.47599983215332)"><path stroke-linecap="butt" stroke-linejoin="miter" fill-opacity="0" stroke-miterlimit="4" stroke="rgb(107,107,107)" stroke-opacity="1" stroke-width="1.3" d=" M-0.9729999899864197,8.519000053405762 C-0.9729999899864197,8.519000053405762 0.9739999771118164,-8.519000053405762 0.9739999771118164,-8.519000053405762"></path></g><g opacity="1" transform="matrix(1,0,0,1,38.78499984741211,22.232999801635742)"><path stroke-linecap="butt" stroke-linejoin="miter" fill-opacity="0" stroke-miterlimit="4" stroke="rgb(107,107,107)" stroke-opacity="1" stroke-width="1.3" d=" M-1.4600000381469727,-8.276000022888184 C-1.4600000381469727,-8.276000022888184 1.4600000381469727,8.276000022888184 1.4600000381469727,8.276000022888184"></path></g><g opacity="1" transform="matrix(1,0,0,1,0,0)"><path stroke-linecap="butt" stroke-linejoin="miter" fill-opacity="0" stroke-miterlimit="4" stroke="rgb(107,107,107)" stroke-opacity="1" stroke-width="1.3" d=" M56.797000885009766,13.956999778747559 C56.797000885009766,13.956999778747559 56.797000885009766,30.9950008392334 56.797000885009766,30.9950008392334"></path></g><g opacity="1" transform="matrix(1,0,0,1,56.308998107910156,206.7530059814453)"><path stroke-linecap="butt" stroke-linejoin="miter" fill-opacity="0" stroke-miterlimit="4" stroke="rgb(107,107,107)" stroke-opacity="1" stroke-width="1.3" d=" M-39.91899871826172,-4.886000156402588 C-9.1899995803833,4.885000228881836 7.914999961853027,4.821000099182129 39.91899871826172,-4.886000156402588"></path></g><g opacity="1" transform="matrix(1,0,0,1,61.63399887084961,302.0329895019531)"><path stroke-linecap="butt" stroke-linejoin="miter" fill-opacity="0" stroke-miterlimit="4" stroke="rgb(107,107,107)" stroke-opacity="1" stroke-width="1.3" d=" M-10.680000305175781,-6.697999954223633 C-13.173999786376953,-1.565000057220459 -12.789999961853027,1.3140000104904175 -10.680000305175781,6.447000026702881 C-10.680000305175781,6.447000026702881 -6.784999847412109,4.986000061035156 -6.784999847412109,4.986000061035156 C-6.784999847412109,4.986000061035156 -6.784999847412109,7.906000137329102 -6.784999847412109,7.906000137329102 C-2.6089999675750732,9.454000473022461 -0.25600001215934753,9.619000434875488 3.9240000247955322,7.906000137329102 C3.9240000247955322,7.906000137329102 7.818999767303467,4.986000061035156 7.818999767303467,4.986000061035156 C7.818999767303467,4.986000061035156 13.173999786376953,2.5510001182556152 13.173999786376953,2.5510001182556152 C13.173999786376953,2.5510001182556152 13.173999786376953,-6.697999954223633 13.173999786376953,-6.697999954223633 C13.173999786376953,-6.697999954223633 5.870999813079834,-9.619000434875488 5.870999813079834,-9.619000434875488"></path></g></g></g></svg>