<svg xmlns="http://www.w3.org/2000/svg" viewBox="0 0 372 616" width="372" height="616" preserveAspectRatio="xMidYMid meet" style="width: 100%; height: 100%; transform: translate3d(0px, 0px, 0px);"><defs><clipPath id="__lottie_element_113"><rect width="372" height="616" x="0" y="0"></rect></clipPath></defs><g clip-path="url(#__lottie_element_113)"><g style="display: block;" transform="matrix(1,0,0,1,8.020000457763672,262.635986328125)" opacity="0.9816324217151098"><g opacity="1" transform="matrix(1,0,0,1,20.01300048828125,128.3679962158203)"><path fill="rgb(208,208,208)" fill-opacity="1" d=" M-19.76300048828125,91.31800079345703 C-19.76300048828125,91.31800079345703 -19.76300048828125,-128.1179962158203 -19.76300048828125,-128.1179962158203 C-19.76300048828125,-128.1179962158203 19.76300048828125,-102.22200012207031 19.76300048828125,-102.22200012207031 C19.76300048828125,-102.22200012207031 19.76300048828125,128.11900329589844 19.76300048828125,128.11900329589844 C19.76300048828125,128.11900329589844 -19.76300048828125,91.31800079345703 -19.76300048828125,91.31800079345703z"></path></g></g><g style="display: block;" transform="matrix(1,0,0,1,1.6570053100585938,125.88400268554688)" opacity="0.9816324217151098"><g opacity="1" transform="matrix(1,0,0,1,108.37799835205078,79.302001953125)"><path fill="rgb(235,235,235)" fill-opacity="1" d=" M53.15599822998047,-79.052001953125 C53.15599822998047,-79.052001953125 30.89299964904785,-73.5999984741211 30.89299964904785,-73.5999984741211 C30.89299964904785,-73.5999984741211 28.621999740600586,-72.23699951171875 28.621999740600586,-72.23699951171875 C28.621999740600586,-72.23699951171875 5.906000137329102,-49.974998474121094 5.906000137329102,-49.974998474121094 C5.906000137329102,-49.974998474121094 0.9079999923706055,-48.15800094604492 0.9079999923706055,-48.15800094604492 C0.9079999923706055,-48.15800094604492 -49.066001892089844,-1.8170000314712524 -49.066001892089844,-1.8170000314712524 C-49.066001892089844,-1.8170000314712524 -53.60900115966797,0 -53.60900115966797,0 C-53.60900115966797,0 -106.31099700927734,48.15800094604492 -106.31099700927734,48.15800094604492 C-106.31099700927734,48.15800094604492 -108.12799835205078,49.06700134277344 -108.12799835205078,49.06700134277344 C-108.12799835205078,49.06700134277344 -63.150001525878906,79.052001953125 -63.150001525878906,79.052001953125 C-63.150001525878906,79.052001953125 -5.9070000648498535,26.35099983215332 -5.9070000648498535,26.35099983215332 C-5.9070000648498535,26.35099983215332 -0.45399999618530273,24.988000869750977 -0.45399999618530273,24.988000869750977 C-0.45399999618530273,24.988000869750977 51.3390007019043,-24.07900047302246 51.3390007019043,-24.07900047302246 C51.3390007019043,-24.07900047302246 56.334999084472656,-26.35099983215332 56.334999084472656,-26.35099983215332 C56.334999084472656,-26.35099983215332 79.0510025024414,-53.15599822998047 79.0510025024414,-53.15599822998047 C79.0510025024414,-53.15599822998047 108.12799835205078,-58.15299987792969 108.12799835205078,-58.15299987792969 C108.12799835205078,-58.15299987792969 53.15599822998047,-79.052001953125 53.15599822998047,-79.052001953125z"></path></g></g><g transform="matrix(1,0,0,1,-0.3000030517578125,0.3499755859375)" opacity="1" style="display: block;"><g opacity="1" transform="matrix(1,0,0,1,0,0)"><path stroke-linecap="butt" stroke-linejoin="miter" fill-opacity="0" stroke-miterlimit="4" stroke="rgb(148,148,148)" stroke-opacity="1" stroke-width="0.5" d=" M67.63099670410156,270.0950012207031 C67.63099670410156,270.0950012207031 67.63099670410156,519.5170288085938 67.63099670410156,519.5170288085938"></path></g><g opacity="1" transform="matrix(1,0,0,1,0,0)"><path stroke-linecap="butt" stroke-linejoin="miter" fill-opacity="0" stroke-miterlimit="4" stroke="rgb(148,148,148)" stroke-opacity="1" stroke-width="0.5" d=" M109.93900299072266,233.7469940185547 C109.93900299072266,233.7469940185547 109.93900299072266,508.76800537109375 109.93900299072266,508.76800537109375"></path></g><g opacity="1" transform="matrix(1,0,0,1,0,0)"><path stroke-linecap="butt" stroke-linejoin="miter" fill-opacity="0" stroke-miterlimit="4" stroke="rgb(148,148,148)" stroke-opacity="1" stroke-width="0.5" d=" M151.0449981689453,195.57699584960938 C151.0449981689453,195.57699584960938 151.0449981689453,498.00201416015625 151.0449981689453,498.00201416015625"></path></g><g opacity="1" transform="matrix(1,0,0,1,0,0)"><path stroke-linecap="butt" stroke-linejoin="miter" fill-opacity="0" stroke-miterlimit="4" stroke="rgb(148,148,148)" stroke-opacity="1" stroke-width="0.5" d=" M192.15199279785156,153.49200439453125 C192.15199279785156,153.49200439453125 192.15199279785156,489.1940002441406 192.15199279785156,489.1940002441406"></path></g><g opacity="1" transform="matrix(1,0,0,1,0,0)"><path stroke-linecap="butt" stroke-linejoin="miter" fill-opacity="0" stroke-miterlimit="4" stroke="rgb(148,148,148)" stroke-opacity="1" stroke-width="0.5" d=" M274.364990234375,208.3000030517578 C274.364990234375,208.3000030517578 274.364990234375,468.6409912109375 274.364990234375,468.6409912109375"></path></g><g opacity="1" transform="matrix(1,0,0,1,0,0)"><path stroke-linecap="butt" stroke-linejoin="miter" fill-opacity="0" stroke-miterlimit="4" stroke="rgb(148,148,148)" stroke-opacity="1" stroke-width="0.5" d=" M233.25799560546875,162.3000030517578 C233.25799560546875,162.3000030517578 233.25799560546875,406.9809875488281 233.25799560546875,406.9809875488281"></path></g><g opacity="1" transform="matrix(1,0,0,1,0,0)"><path stroke-linecap="butt" stroke-linejoin="miter" fill-opacity="0" stroke-miterlimit="4" stroke="rgb(148,148,148)" stroke-opacity="1" stroke-width="0.5" d=" M75.68299865722656,263.1090087890625 C75.68299865722656,263.1090087890625 75.68299865722656,517.5770263671875 75.68299865722656,517.5770263671875"></path></g><g opacity="1" transform="matrix(1,0,0,1,0,0)"><path stroke-linecap="butt" stroke-linejoin="miter" fill-opacity="0" stroke-miterlimit="4" stroke="rgb(148,148,148)" stroke-opacity="1" stroke-width="0.5" d=" M116.6969985961914,227.84300231933594 C116.6969985961914,227.84300231933594 116.6969985961914,506.7969970703125 116.6969985961914,506.7969970703125"></path></g><g opacity="1" transform="matrix(1,0,0,1,0,0)"><path stroke-linecap="butt" stroke-linejoin="miter" fill-opacity="0" stroke-miterlimit="4" stroke="rgb(148,148,148)" stroke-opacity="1" stroke-width="0.5" d=" M157.89700317382812,188.7259979248047 C157.89700317382812,188.7259979248047 157.89700317382812,421.6619873046875 157.89700317382812,421.6619873046875"></path></g><g opacity="1" transform="matrix(1,0,0,1,0,0)"><path stroke-linecap="butt" stroke-linejoin="miter" fill-opacity="0" stroke-miterlimit="4" stroke="rgb(148,148,148)" stroke-opacity="1" stroke-width="0.5" d=" M199.0019989013672,152.51300048828125 C199.0019989013672,152.51300048828125 199.0019989013672,487.2359924316406 199.0019989013672,487.2359924316406"></path></g><g opacity="1" transform="matrix(1,0,0,1,0,0)"><path stroke-linecap="butt" stroke-linejoin="miter" fill-opacity="0" stroke-miterlimit="4" stroke="rgb(148,148,148)" stroke-opacity="1" stroke-width="0.5" d=" M240.10899353027344,169.1510009765625 C240.10899353027344,169.1510009765625 240.10899353027344,405.02398681640625 240.10899353027344,405.02398681640625"></path></g><g opacity="1" transform="matrix(1,0,0,1,0,0)"><path stroke-linecap="butt" stroke-linejoin="miter" fill-opacity="0" stroke-miterlimit="4" stroke="rgb(148,148,148)" stroke-opacity="1" stroke-width="0.5" d=" M281.2149963378906,207.3209991455078 C281.2149963378906,207.3209991455078 281.2149963378906,467.6619873046875 281.2149963378906,467.6619873046875"></path></g><g opacity="1" transform="matrix(1,0,0,1,0,0)"><path stroke-linecap="butt" stroke-linejoin="miter" fill-opacity="0" stroke-miterlimit="4" stroke="rgb(148,148,148)" stroke-opacity="1" stroke-width="0.5" d=" M82.53399658203125,256.25799560546875 C82.53399658203125,256.25799560546875 82.53399658203125,515.6190185546875 82.53399658203125,515.6190185546875"></path></g><g opacity="1" transform="matrix(1,0,0,1,0,0)"><path stroke-linecap="butt" stroke-linejoin="miter" fill-opacity="0" stroke-miterlimit="4" stroke="rgb(148,148,148)" stroke-opacity="1" stroke-width="0.5" d=" M123.63999938964844,221.0240020751953 C123.63999938964844,221.0240020751953 123.63999938964844,505.8320007324219 123.63999938964844,505.8320007324219"></path></g><g opacity="1" transform="matrix(1,0,0,1,0,0)"><path stroke-linecap="butt" stroke-linejoin="miter" fill-opacity="0" stroke-miterlimit="4" stroke="rgb(148,148,148)" stroke-opacity="1" stroke-width="0.5" d=" M164.74600219726562,182.85299682617188 C164.74600219726562,182.85299682617188 164.74600219726562,419.7040100097656 164.74600219726562,419.7040100097656"></path></g><g opacity="1" transform="matrix(1,0,0,1,0,0)"><path stroke-linecap="butt" stroke-linejoin="miter" fill-opacity="0" stroke-miterlimit="4" stroke="rgb(148,148,148)" stroke-opacity="1" stroke-width="0.5" d=" M205.85400390625,151.53399658203125 C205.85400390625,151.53399658203125 205.85400390625,485.27899169921875 205.85400390625,485.27899169921875"></path></g><g opacity="1" transform="matrix(1,0,0,1,0,0)"><path stroke-linecap="butt" stroke-linejoin="miter" fill-opacity="0" stroke-miterlimit="4" stroke="rgb(148,148,148)" stroke-opacity="1" stroke-width="0.5" d=" M246.9600067138672,213.19400024414062 C246.9600067138672,213.19400024414062 246.9600067138672,406.9809875488281 246.9600067138672,406.9809875488281"></path></g><g opacity="1" transform="matrix(1,0,0,1,0,0)"><path stroke-linecap="butt" stroke-linejoin="miter" fill-opacity="0" stroke-miterlimit="4" stroke="rgb(148,148,148)" stroke-opacity="1" stroke-width="0.5" d=" M288.0669860839844,206.34300231933594 C288.0669860839844,206.34300231933594 288.0669860839844,465.7040100097656 288.0669860839844,465.7040100097656"></path></g><g opacity="1" transform="matrix(1,0,0,1,0,0)"><path stroke-linecap="butt" stroke-linejoin="miter" fill-opacity="0" stroke-miterlimit="4" stroke="rgb(148,148,148)" stroke-opacity="1" stroke-width="0.5" d=" M89.38500213623047,250.38499450683594 C89.38500213623047,250.38499450683594 89.38500213623047,514.6400146484375 89.38500213623047,514.6400146484375"></path></g><g opacity="1" transform="matrix(1,0,0,1,0,0)"><path stroke-linecap="butt" stroke-linejoin="miter" fill-opacity="0" stroke-miterlimit="4" stroke="rgb(148,148,148)" stroke-opacity="1" stroke-width="0.5" d=" M130.49099731445312,215.1510009765625 C130.49099731445312,215.1510009765625 130.49099731445312,503.875 130.49099731445312,503.875"></path></g><g opacity="1" transform="matrix(1,0,0,1,0,0)"><path stroke-linecap="butt" stroke-linejoin="miter" fill-opacity="0" stroke-miterlimit="4" stroke="rgb(148,148,148)" stroke-opacity="1" stroke-width="0.5" d=" M171.59800720214844,176.0019989013672 C171.59800720214844,176.0019989013672 171.59800720214844,419.7040100097656 171.59800720214844,419.7040100097656"></path></g><g opacity="1" transform="matrix(1,0,0,1,0,0)"><path stroke-linecap="butt" stroke-linejoin="miter" fill-opacity="0" stroke-miterlimit="4" stroke="rgb(148,148,148)" stroke-opacity="1" stroke-width="0.5" d=" M212.70399475097656,149.57699584960938 C212.70399475097656,149.57699584960938 212.70399475097656,483.3210144042969 212.70399475097656,483.3210144042969"></path></g><g opacity="1" transform="matrix(1,0,0,1,0,0)"><path stroke-linecap="butt" stroke-linejoin="miter" fill-opacity="0" stroke-miterlimit="4" stroke="rgb(148,148,148)" stroke-opacity="1" stroke-width="0.5" d=" M253.81100463867188,212.21499633789062 C253.81100463867188,212.21499633789062 253.81100463867188,473.53399658203125 253.81100463867188,473.53399658203125"></path></g><g opacity="1" transform="matrix(1,0,0,1,0,0)"><path stroke-linecap="butt" stroke-linejoin="miter" fill-opacity="0" stroke-miterlimit="4" stroke="rgb(148,148,148)" stroke-opacity="1" stroke-width="0.5" d=" M294.9169921875,205.36399841308594 C294.9169921875,205.36399841308594 294.9169921875,463.74700927734375 294.9169921875,463.74700927734375"></path></g><g opacity="1" transform="matrix(1,0,0,1,0,0)"><path stroke-linecap="butt" stroke-linejoin="miter" fill-opacity="0" stroke-miterlimit="4" stroke="rgb(148,148,148)" stroke-opacity="1" stroke-width="0.5" d=" M96.23600006103516,243.53399658203125 C96.23600006103516,243.53399658203125 96.23600006103516,512.6829833984375 96.23600006103516,512.6829833984375"></path></g><g opacity="1" transform="matrix(1,0,0,1,0,0)"><path stroke-linecap="butt" stroke-linejoin="miter" fill-opacity="0" stroke-miterlimit="4" stroke="rgb(148,148,148)" stroke-opacity="1" stroke-width="0.5" d=" M137.34300231933594,208.3000030517578 C137.34300231933594,208.3000030517578 137.34300231933594,501.9169921875 137.34300231933594,501.9169921875"></path></g><g opacity="1" transform="matrix(1,0,0,1,0,0)"><path stroke-linecap="butt" stroke-linejoin="miter" fill-opacity="0" stroke-miterlimit="4" stroke="rgb(148,148,148)" stroke-opacity="1" stroke-width="0.5" d=" M178.44900512695312,168.1719970703125 C178.44900512695312,168.1719970703125 178.44900512695312,492.1300048828125 178.44900512695312,492.1300048828125"></path></g><g opacity="1" transform="matrix(1,0,0,1,0,0)"><path stroke-linecap="butt" stroke-linejoin="miter" fill-opacity="0" stroke-miterlimit="4" stroke="rgb(148,148,148)" stroke-opacity="1" stroke-width="0.5" d=" M219.55499267578125,150.55599975585938 C219.55499267578125,150.55599975585938 219.55499267578125,482.3429870605469 219.55499267578125,482.3429870605469"></path></g><g opacity="1" transform="matrix(1,0,0,1,0,0)"><path stroke-linecap="butt" stroke-linejoin="miter" fill-opacity="0" stroke-miterlimit="4" stroke="rgb(148,148,148)" stroke-opacity="1" stroke-width="0.5" d=" M260.6610107421875,210.25799560546875 C260.6610107421875,210.25799560546875 260.6610107421875,471.5769958496094 260.6610107421875,471.5769958496094"></path></g><g opacity="1" transform="matrix(1,0,0,1,0,0)"><path stroke-linecap="butt" stroke-linejoin="miter" fill-opacity="0" stroke-miterlimit="4" stroke="rgb(148,148,148)" stroke-opacity="1" stroke-width="0.5" d=" M301.76800537109375,203.40699768066406 C301.76800537109375,203.40699768066406 301.76800537109375,462.76800537109375 301.76800537109375,462.76800537109375"></path></g><g opacity="1" transform="matrix(1,0,0,1,0,0)"><path stroke-linecap="butt" stroke-linejoin="miter" fill-opacity="0" stroke-miterlimit="4" stroke="rgb(148,148,148)" stroke-opacity="1" stroke-width="0.5" d=" M103.08799743652344,237.1719970703125 C103.08799743652344,237.1719970703125 103.08799743652344,510.72601318359375 103.08799743652344,510.72601318359375"></path></g><g opacity="1" transform="matrix(1,0,0,1,0,0)"><path stroke-linecap="butt" stroke-linejoin="miter" fill-opacity="0" stroke-miterlimit="4" stroke="rgb(148,148,148)" stroke-opacity="1" stroke-width="0.5" d=" M144.19400024414062,201.44900512695312 C144.19400024414062,201.44900512695312 144.19400024414062,499.9599914550781 144.19400024414062,499.9599914550781"></path></g><g opacity="1" transform="matrix(1,0,0,1,0,0)"><path stroke-linecap="butt" stroke-linejoin="miter" fill-opacity="0" stroke-miterlimit="4" stroke="rgb(148,148,148)" stroke-opacity="1" stroke-width="0.5" d=" M185.3000030517578,159.36399841308594 C185.3000030517578,159.36399841308594 185.3000030517578,490.1730041503906 185.3000030517578,490.1730041503906"></path></g><g opacity="1" transform="matrix(1,0,0,1,0,0)"><path stroke-linecap="butt" stroke-linejoin="miter" fill-opacity="0" stroke-miterlimit="4" stroke="rgb(148,148,148)" stroke-opacity="1" stroke-width="0.5" d=" M226.406005859375,156.42799377441406 C226.406005859375,156.42799377441406 226.406005859375,480.385986328125 226.406005859375,480.385986328125"></path></g><g opacity="1" transform="matrix(1,0,0,1,0,0)"><path stroke-linecap="butt" stroke-linejoin="miter" fill-opacity="0" stroke-miterlimit="4" stroke="rgb(148,148,148)" stroke-opacity="1" stroke-width="0.5" d=" M267.51300048828125,209.2790069580078 C267.51300048828125,209.2790069580078 267.51300048828125,470.5979919433594 267.51300048828125,470.5979919433594"></path></g><g opacity="1" transform="matrix(1,0,0,1,0,0)"><path stroke-linecap="butt" stroke-linejoin="miter" fill-opacity="0" stroke-miterlimit="4" stroke="rgb(148,148,148)" stroke-opacity="1" stroke-width="0.5" d=" M308.6189880371094,202.42799377441406 C308.6189880371094,202.42799377441406 308.6189880371094,460.8110046386719 308.6189880371094,460.8110046386719"></path></g><g opacity="1" transform="matrix(1,0,0,1,265.0660095214844,54.64099884033203)"><path stroke-linecap="butt" stroke-linejoin="miter" fill-opacity="0" stroke-miterlimit="4" stroke="rgb(107,107,107)" stroke-opacity="1" stroke-width="1.3" d=" M-0.48899999260902405,-18.10700035095215 C-0.48899999260902405,-18.10700035095215 7.828999996185303,-14.680999755859375 7.828999996185303,-14.680999755859375 C7.828999996185303,-14.680999755859375 7.828999996185303,0.9789999723434448 7.828999996185303,0.9789999723434448 C1.9570000171661377,1.468000054359436 2.447000026702881,7.790999889373779 2.447000026702881,18.10700035095215 C2.447000026702881,18.10700035095215 -0.9779999852180481,8.809000015258789 -7.828999996185303,8.809000015258789 C-7.828999996185303,8.809000015258789 -7.828999996185303,-18.10700035095215 -7.828999996185303,-18.10700035095215 C-7.828999996185303,-18.10700035095215 -0.48899999260902405,-18.10700035095215 -0.48899999260902405,-18.10700035095215z"></path></g><g opacity="1" transform="matrix(1,0,0,1,166.70399475097656,370.27801513671875)"><path stroke-linecap="butt" stroke-linejoin="miter" fill-opacity="0" stroke-miterlimit="4" stroke="rgb(107,107,107)" stroke-opacity="1" stroke-width="1.3" d=" M-165.4040069580078,195.74400329589844 C-165.4040069580078,195.74400329589844 -165.4040069580078,-115.97899627685547 -165.4040069580078,-115.97899627685547 C-165.4040069580078,-115.97899627685547 -162.46800231933594,-116.95800018310547 -162.46800231933594,-116.95800018310547 C-162.46800231933594,-116.95800018310547 -110.10600280761719,-165.4040069580078 -110.10600280761719,-165.4040069580078 C-110.10600280761719,-165.4040069580078 -106.19100189208984,-166.8730010986328 -106.19100189208984,-166.8730010986328 C-106.19100189208984,-166.8730010986328 -55.78799819946289,-213.36099243164062 -55.78799819946289,-213.36099243164062 C-55.78799819946289,-213.36099243164062 -51.382999420166016,-214.8300018310547 -51.382999420166016,-214.8300018310547 C-51.382999420166016,-214.8300018310547 -26.836999893188477,-238.7519989013672 -26.836999893188477,-238.7519989013672 C-26.836999893188477,-238.7519989013672 -3.424999952316284,-244.19200134277344 -3.424999952316284,-244.19200134277344 C-3.424999952316284,-244.19200134277344 52.36199951171875,-223.1490020751953 52.36199951171875,-223.1490020751953 C52.36199951171875,-223.1490020751953 77.31900024414062,-200.63900756835938 77.31900024414062,-200.63900756835938 C77.31900024414062,-200.63900756835938 77.31900024414062,-193.29800415039062 77.31900024414062,-193.29800415039062 C77.31900024414062,-193.29800415039062 79.2770004272461,-187.42599487304688 79.2770004272461,-187.42599487304688 C79.2770004272461,-187.42599487304688 79.2770004272461,-173.23399353027344 79.2770004272461,-173.23399353027344 C79.2770004272461,-173.23399353027344 74.87300109863281,-171.76600646972656 74.87300109863281,-171.76600646972656 C74.87300109863281,-171.76600646972656 74.87300109863281,-156.5959930419922 74.87300109863281,-156.5959930419922 C74.87300109863281,-156.5959930419922 165.4040069580078,-171.76600646972656 165.4040069580078,-171.76600646972656 C165.4040069580078,-171.76600646972656 165.4040069580078,-108.14900207519531 165.4040069580078,-108.14900207519531 C165.4040069580078,-108.14900207519531 162.46800231933594,-106.68099975585938 162.46800231933594,-106.68099975585938 C162.46800231933594,-106.68099975585938 162.46800231933594,91.02100372314453 162.46800231933594,91.02100372314453 C162.46800231933594,91.02100372314453 160.02099609375,91.51000213623047 160.02099609375,91.51000213623047 C160.02099609375,91.51000213623047 160.02099609375,174.21299743652344 160.02099609375,174.21299743652344 C160.02099609375,174.21299743652344 156.5959930419922,176.1699981689453 156.5959930419922,176.1699981689453 C156.5959930419922,176.1699981689453 154.1490020751953,174.21299743652344 154.1490020751953,174.21299743652344 C154.1490020751953,174.21299743652344 154.1490020751953,92.48899841308594 154.1490020751953,92.48899841308594 C154.1490020751953,92.48899841308594 88.08499908447266,107.66000366210938 88.08499908447266,107.66000366210938 C88.08499908447266,107.66000366210938 79.76599884033203,110.10600280761719 79.76599884033203,110.10600280761719 C79.76599884033203,110.10600280761719 75.36199951171875,115 75.36199951171875,115 C75.36199951171875,115 75.36199951171875,140.44700622558594 75.36199951171875,140.44700622558594 C75.36199951171875,140.44700622558594 71.4469985961914,141.9149932861328 71.4469985961914,141.9149932861328 C71.4469985961914,141.9149932861328 69.97899627685547,197.21299743652344 69.97899627685547,197.21299743652344 C69.97899627685547,197.21299743652344 66.5530014038086,198.1909942626953 66.5530014038086,198.1909942626953 C66.5530014038086,198.1909942626953 61.65999984741211,194.2760009765625 61.65999984741211,194.2760009765625 C61.65999984741211,194.2760009765625 58.23400115966797,171.2760009765625 58.23400115966797,171.2760009765625 C58.23400115966797,171.2760009765625 47.95800018310547,153.65899658203125 47.95800018310547,153.65899658203125 C47.95800018310547,153.65899658203125 38.65999984741211,147.29800415039062 38.65999984741211,147.29800415039062 C38.65999984741211,147.29800415039062 14.190999984741211,153.65899658203125 14.190999984741211,153.65899658203125 C14.190999984741211,153.65899658203125 2.447000026702881,215.31900024414062 2.447000026702881,215.31900024414062 C2.447000026702881,215.31900024414062 -2.936000108718872,217.2760009765625 -2.936000108718872,217.2760009765625 C-2.936000108718872,217.2760009765625 -5.872000217437744,215.31900024414062 -5.872000217437744,215.31900024414062 C-5.872000217437744,215.31900024414062 -7.340000152587891,199.65899658203125 -7.340000152587891,199.65899658203125 C-7.340000152587891,199.65899658203125 -24.957000732421875,169.80799865722656 -24.957000732421875,169.80799865722656 C-24.957000732421875,169.80799865722656 -31.80900001525879,164.9149932861328 -31.80900001525879,164.9149932861328 C-31.80900001525879,164.9149932861328 -43.553001403808594,166.8719940185547 -43.553001403808594,166.8719940185547 C-43.553001403808594,166.8719940185547 -45.020999908447266,172.74400329589844 -45.020999908447266,172.74400329589844 C-45.020999908447266,172.74400329589844 -43.06399917602539,177.63800048828125 -43.06399917602539,177.63800048828125 C-43.06399917602539,177.63800048828125 -46.4900016784668,180.0850067138672 -46.4900016784668,180.0850067138672 C-46.4900016784668,180.0850067138672 -49.42499923706055,177.63800048828125 -49.42499923706055,177.63800048828125 C-49.42499923706055,177.63800048828125 -50.893001556396484,141.9149932861328 -50.893001556396484,141.9149932861328 C-50.893001556396484,141.9149932861328 -108.14900207519531,157.0850067138672 -108.14900207519531,157.0850067138672 C-108.14900207519531,157.0850067138672 -108.14900207519531,243.21299743652344 -108.14900207519531,243.21299743652344 C-108.14900207519531,243.21299743652344 -111.08499908447266,244.1909942626953 -111.08499908447266,244.1909942626953 C-111.08499908447266,244.1909942626953 -114.51000213623047,240.2760009765625 -114.51000213623047,240.2760009765625 C-114.51000213623047,240.2760009765625 -114.51000213623047,157.0850067138672 -114.51000213623047,157.0850067138672 C-114.51000213623047,157.0850067138672 -160.02099609375,114.51000213623047 -160.02099609375,114.51000213623047 C-160.02099609375,114.51000213623047 -160.02099609375,197.21299743652344 -160.02099609375,197.21299743652344 C-160.02099609375,197.21299743652344 -161.97900390625,199.65899658203125 -161.97900390625,199.65899658203125 C-161.97900390625,199.65899658203125 -165.4040069580078,195.74400329589844 -165.4040069580078,195.74400329589844z"></path></g><g opacity="1" transform="matrix(1,0,0,1,110.18299865722656,215.63999938964844)"><path stroke-linecap="butt" stroke-linejoin="miter" fill-opacity="0" stroke-miterlimit="4" stroke="rgb(107,107,107)" stroke-opacity="1" stroke-width="1.3" d=" M108.39399719238281,-68.51000213623047 C108.39399719238281,-68.51000213623047 79.03299713134766,-64.10600280761719 79.03299713134766,-64.10600280761719 C79.03299713134766,-64.10600280761719 56.520999908447266,-37.191001892089844 56.520999908447266,-37.191001892089844 C56.520999908447266,-37.191001892089844 52.11800003051758,-35.233001708984375 52.11800003051758,-35.233001708984375 C52.11800003051758,-35.233001708984375 -0.24500000476837158,14.192000389099121 -0.24500000476837158,14.192000389099121 C-0.24500000476837158,14.192000389099121 -5.627999782562256,15.65999984741211 -5.627999782562256,15.65999984741211 C-5.627999782562256,15.65999984741211 -62.882999420166016,68.51000213623047 -62.882999420166016,68.51000213623047 C-62.882999420166016,68.51000213623047 -108.39399719238281,38.17100143432617 -108.39399719238281,38.17100143432617"></path></g><g opacity="1" transform="matrix(1,0,0,1,126.08599853515625,325.0589904785156)"><path stroke-linecap="butt" stroke-linejoin="miter" fill-opacity="0" stroke-miterlimit="4" stroke="rgb(107,107,107)" stroke-opacity="1" stroke-width="1.3" d=" M14.234999656677246,-193.98599243164062 C14.234999656677246,-193.98599243164062 63.12799835205078,-173.52499389648438 63.12799835205078,-173.52499389648438 M-15.65999984741211,-168.14199829101562 C-15.65999984741211,-168.14199829101562 36.21200180053711,-144.16299438476562 36.21200180053711,-144.16299438476562 M-11.255999565124512,-169.61000061035156 C-11.255999565124512,-169.61000061035156 40.617000579833984,-146.61000061035156 40.617000579833984,-146.61000061035156 M-66.06400299072266,-121.65299987792969 C-66.06400299072266,-121.65299987792969 -16.638999938964844,-95.22699737548828 -16.638999938964844,-95.22699737548828 M-69.97899627685547,-119.69499969482422 C-69.97899627685547,-119.69499969482422 -21.531999588012695,-93.75900268554688 -21.531999588012695,-93.75900268554688 M-77.80899810791016,-36.50400161743164 C-77.80899810791016,-36.50400161743164 -77.80899810791016,193.98599243164062 -77.80899810791016,193.98599243164062 C-77.80899810791016,193.98599243164062 -117.4469985961914,157.28500366210938 -117.4469985961914,157.28500366210938 C-117.4469985961914,157.28500366210938 -117.4469985961914,-62.92900085449219 -117.4469985961914,-62.92900085449219 C-117.4469985961914,-62.92900085449219 -77.80899810791016,-36.50400161743164 -77.80899810791016,-36.50400161743164z M-77.80899810791016,-36.50400161743164 C-77.80899810791016,-36.50400161743164 -21.531999588012695,-89.3550033569336 -21.531999588012695,-89.3550033569336 C-21.531999588012695,-89.3550033569336 -16.148000717163086,-90.822998046875 -16.148000717163086,-90.822998046875 C-16.148000717163086,-90.822998046875 36.21200180053711,-140.73800659179688 36.21200180053711,-140.73800659179688 C36.21200180053711,-140.73800659179688 39.63800048828125,-142.20599365234375 39.63800048828125,-142.20599365234375 C39.63800048828125,-142.20599365234375 64.10600280761719,-171.56700134277344 64.10600280761719,-171.56700134277344 C64.10600280761719,-171.56700134277344 92.0009994506836,-175.9720001220703 92.0009994506836,-175.9720001220703 C92.0009994506836,-175.9720001220703 115.97899627685547,-154.44000244140625 115.97899627685547,-154.44000244140625 C115.97899627685547,-154.44000244140625 115.97899627685547,-148.0780029296875 115.97899627685547,-148.0780029296875 C115.97899627685547,-148.0780029296875 117.4469985961914,-148.0780029296875 117.4469985961914,-148.0780029296875"></path></g><g opacity="1" transform="matrix(1,0,0,1,186.2790069580078,361.7149963378906)"><path stroke-linecap="butt" stroke-linejoin="miter" fill-opacity="0" stroke-miterlimit="4" stroke="rgb(107,107,107)" stroke-opacity="1" stroke-width="1.3" d=" M-127.23400115966797,-83.43599700927734 C-127.23400115966797,-83.43599700927734 -127.23400115966797,160.26600646972656 -127.23400115966797,160.26600646972656 C-127.23400115966797,160.26600646972656 -29.85099983215332,135.3090057373047 -29.85099983215332,135.3090057373047 C-29.85099983215332,135.3090057373047 -29.85099983215332,59.946998596191406 -29.85099983215332,59.946998596191406 C-29.85099983215332,59.946998596191406 -16.63800048828125,56.520999908447266 -16.63800048828125,56.520999908447266 C-16.63800048828125,56.520999908447266 -12.234000205993652,59.946998596191406 -12.234000205993652,59.946998596191406 C-12.234000205993652,59.946998596191406 -12.234000205993652,131.3939971923828 -12.234000205993652,131.3939971923828 C-12.234000205993652,131.3939971923828 46.4900016784668,117.2020034790039 46.4900016784668,117.2020034790039 C46.4900016784668,117.2020034790039 46.4900016784668,45.26599884033203 46.4900016784668,45.26599884033203 C46.4900016784668,45.26599884033203 57.255001068115234,42.33000183105469 57.255001068115234,42.33000183105469 C57.255001068115234,42.33000183105469 60.680999755859375,45.26599884033203 60.680999755859375,45.26599884033203 C60.680999755859375,45.26599884033203 60.680999755859375,113.28700256347656 60.680999755859375,113.28700256347656 C60.680999755859375,113.28700256347656 127.23400115966797,98.11699676513672 127.23400115966797,98.11699676513672 C127.23400115966797,98.11699676513672 127.23400115966797,-160.26600646972656 127.23400115966797,-160.26600646972656"></path></g><g opacity="1" transform="matrix(1,0,0,1,246.71499633789062,283.1719970703125)"><path stroke-linecap="butt" stroke-linejoin="miter" fill-opacity="0" stroke-miterlimit="4" stroke="rgb(107,107,107)" stroke-opacity="1" stroke-width="1.3" d=" M-89.7979965209961,138.48899841308594 C-89.7979965209961,138.48899841308594 -83.92500305175781,141.9149932861328 -83.92500305175781,141.9149932861328 C-83.92500305175781,141.9149932861328 -83.92500305175781,230.48899841308594 -83.92500305175781,230.48899841308594 C-83.92500305175781,230.48899841308594 -96.15899658203125,220.21299743652344 -96.15899658203125,220.21299743652344 C-96.15899658203125,220.21299743652344 -87.83999633789062,217.76600646972656 -87.83999633789062,217.76600646972656 M-13.456999778747559,123.80899810791016 C-13.456999778747559,123.80899810791016 -9.541999816894531,127.23500061035156 -9.541999816894531,127.23500061035156 C-9.541999816894531,127.23500061035156 -9.541999816894531,212.8719940185547 -9.541999816894531,212.8719940185547 C-9.541999816894531,212.8719940185547 -20.79800033569336,201.1280059814453 -20.79800033569336,201.1280059814453 C-20.79800033569336,201.1280059814453 -13.946999549865723,199.65899658203125 -13.946999549865723,199.65899658203125 M84.90499877929688,-22.020999908447266 C84.90499877929688,-22.020999908447266 87.84100341796875,-23.48900032043457 87.84100341796875,-23.48900032043457 C87.84100341796875,-23.48900032043457 87.84100341796875,-175.67999267578125 87.84100341796875,-175.67999267578125 C87.84100341796875,-175.67999267578125 82.9469985961914,-174.70199584960938 82.9469985961914,-174.70199584960938 C82.9469985961914,-174.70199584960938 71.2020034790039,-178.61700439453125 71.2020034790039,-178.61700439453125 C71.2020034790039,-178.61700439453125 71.2020034790039,-191.33999633789062 71.2020034790039,-191.33999633789062 C71.2020034790039,-191.33999633789062 77.56400299072266,-193.78700256347656 78.54299926757812,-194.76600646972656 C79.52100372314453,-195.74400329589844 80.01100158691406,-200.63800048828125 78.54299926757812,-202.1060028076172 C77.07499694824219,-203.57400512695312 74.62799835205078,-204.55299377441406 74.62799835205078,-204.55299377441406 C74.62799835205078,-204.55299377441406 74.62799835205078,-242.23399353027344 74.62799835205078,-242.23399353027344 C74.62799835205078,-242.23399353027344 84.90499877929688,-244.67999267578125 84.90499877929688,-244.67999267578125 C84.90499877929688,-244.67999267578125 114.26599884033203,-267.1910095214844 114.26599884033203,-267.1910095214844 C114.26599884033203,-267.1910095214844 122.58499908447266,-270.12701416015625 122.58499908447266,-270.12701416015625 C122.58499908447266,-270.12701416015625 96.16000366210938,-277.9570007324219 96.16000366210938,-277.9570007324219 C96.16000366210938,-277.9570007324219 16.882999420166016,-249.0850067138672 16.882999420166016,-249.0850067138672 C16.882999420166016,-249.0850067138672 47.7130012512207,-270.12701416015625 47.7130012512207,-270.12701416015625 C47.7130012512207,-270.12701416015625 57.01100158691406,-274.0419921875 57.01100158691406,-274.0419921875 C57.01100158691406,-274.0419921875 31.56399917602539,-281.87200927734375 31.56399917602539,-281.87200927734375 C31.56399917602539,-281.87200927734375 -47.22200012207031,-252.51100158691406 -47.22200012207031,-252.51100158691406 C-47.22200012207031,-252.51100158691406 -47.22200012207031,-249.0850067138672 -47.22200012207031,-249.0850067138672 C-47.22200012207031,-249.0850067138672 -39.391998291015625,-244.67999267578125 -39.391998291015625,-244.67999267578125 C-39.391998291015625,-244.67999267578125 -39.391998291015625,-207.48899841308594 -39.391998291015625,-207.48899841308594 C-39.391998291015625,-207.48899841308594 -42.819000244140625,-206.02099609375 -44.2869987487793,-204.55299377441406 C-45.755001068115234,-203.0850067138672 -45.755001068115234,-199.1699981689453 -44.2869987487793,-197.70199584960938 C-42.819000244140625,-196.23399353027344 -39.391998291015625,-194.76600646972656 -39.391998291015625,-194.76600646972656 C-39.391998291015625,-194.76600646972656 -39.391998291015625,-184 -39.391998291015625,-184 C-39.391998291015625,-184 -55.053001403808594,-182.04200744628906 -55.053001403808594,-182.04200744628906 C-55.053001403808594,-182.04200744628906 -55.053001403808594,-178.61700439453125 -55.053001403808594,-178.61700439453125 C-55.053001403808594,-178.61700439453125 -82.9469985961914,-157.0850067138672 -82.9469985961914,-157.0850067138672 M-119.15899658203125,226.57400512695312 C-119.15899658203125,226.57400512695312 -107.90399932861328,223.1490020751953 -107.90399932861328,223.1490020751953 C-107.90399932861328,223.1490020751953 -92.73400115966797,235.8719940185547 -92.73400115966797,235.8719940185547 C-92.73400115966797,235.8719940185547 -91.26599884033203,247.1280059814453 -91.26599884033203,247.1280059814453 C-91.26599884033203,247.1280059814453 -102.52100372314453,248.5959930419922 -102.52100372314453,248.5959930419922 C-102.52100372314453,248.5959930419922 -108.88300323486328,243.21299743652344 -108.88300323486328,243.21299743652344 C-108.88300323486328,243.21299743652344 -119.15899658203125,226.57400512695312 -119.15899658203125,226.57400512695312z M-102.52100372314453,251.531005859375 C-102.52100372314453,251.531005859375 -102.52100372314453,256.4259948730469 -102.52100372314453,256.4259948730469 C-102.52100372314453,256.4259948730469 -87.83999633789062,281.87200927734375 -87.83999633789062,281.87200927734375 C-87.83999633789062,281.87200927734375 -91.26599884033203,250.06399536132812 -91.26599884033203,250.06399536132812 C-91.26599884033203,250.06399536132812 -102.52100372314453,251.531005859375 -102.52100372314453,251.531005859375z M-119.15899658203125,231.95799255371094 C-119.15899658203125,231.95799255371094 -122.58499908447266,250.5540008544922 -122.58499908447266,250.5540008544922 C-122.58499908447266,250.5540008544922 -112.30799865722656,249.08599853515625 -112.30799865722656,249.08599853515625 C-112.30799865722656,249.08599853515625 -112.30799865722656,243.21299743652344 -112.30799865722656,243.21299743652344 C-112.30799865722656,243.21299743652344 -119.15899658203125,231.95799255371094 -119.15899658203125,231.95799255371094z M-31.073999404907227,233.42599487304688 C-31.073999404907227,233.42599487304688 -31.073999404907227,238.8090057373047 -31.073999404907227,238.8090057373047 C-31.073999404907227,238.8090057373047 -22.7549991607666,253.00100708007812 -22.7549991607666,253.00100708007812 C-22.7549991607666,253.00100708007812 -27.159000396728516,231.95799255371094 -27.159000396728516,231.95799255371094 C-27.159000396728516,231.95799255371094 -31.073999404907227,233.42599487304688 -31.073999404907227,233.42599487304688z"></path></g><g opacity="1" transform="matrix(1,0,0,1,189.94900512695312,126.08699798583984)"><path stroke-linecap="butt" stroke-linejoin="miter" fill-opacity="0" stroke-miterlimit="4" stroke="rgb(107,107,107)" stroke-opacity="1" stroke-width="1.3" d=" M-19.819000244140625,2.447000026702881 C-19.819000244140625,2.447000026702881 -19.819000244140625,-1.468000054359436 -19.819000244140625,-1.468000054359436 C-19.819000244140625,-1.468000054359436 0.734000027179718,-17.617000579833984 0.734000027179718,-17.617000579833984 C0.734000027179718,-17.617000579833984 0.734000027179718,6.361999988555908 0.734000027179718,6.361999988555908 C0.734000027179718,6.361999988555908 -3.180999994277954,8.809000015258789 -3.180999994277954,8.809000015258789 C-3.180999994277954,8.809000015258789 5.627999782562256,12.234000205993652 5.627999782562256,12.234000205993652 C5.627999782562256,12.234000205993652 5.627999782562256,5.873000144958496 5.627999782562256,5.873000144958496 C5.627999782562256,5.873000144958496 19.32900047302246,-3.9149999618530273 19.32900047302246,-3.9149999618530273 C19.32900047302246,-3.9149999618530273 19.32900047302246,0.49000000953674316 19.32900047302246,0.49000000953674316 C19.32900047302246,0.49000000953674316 11.5,12.234000205993652 11.5,12.234000205993652 C11.5,12.234000205993652 8.564000129699707,13.213000297546387 8.564000129699707,13.213000297546387 C8.564000129699707,13.213000297546387 13.946999549865723,15.170999526977539 13.946999549865723,15.170999526977539 C13.946999549865723,15.170999526977539 19.819000244140625,7.829999923706055 19.819000244140625,7.829999923706055 C19.819000244140625,7.829999923706055 19.819000244140625,17.617000579833984 19.819000244140625,17.617000579833984"></path></g><g opacity="1" transform="matrix(1,0,0,1,201.93800354003906,118.99099731445312)"><path stroke-linecap="butt" stroke-linejoin="miter" fill-opacity="0" stroke-miterlimit="4" stroke="rgb(107,107,107)" stroke-opacity="1" stroke-width="1.3" d=" M-7.340000152587891,11.010000228881836 C-7.340000152587891,11.010000228881836 7.340000152587891,0.7350000143051147 7.340000152587891,0.7350000143051147 C7.340000152587891,0.7350000143051147 7.340000152587891,-7.09499979019165 7.340000152587891,-7.09499979019165 C7.340000152587891,-7.09499979019165 -1.9579999446868896,-11.010000228881836 -1.9579999446868896,-11.010000228881836 C-1.9579999446868896,-11.010000228881836 -4.894000053405762,-11.010000228881836 -4.894000053405762,-11.010000228881836 C-4.894000053405762,-11.010000228881836 -7.340000152587891,-5.627999782562256 -7.340000152587891,-5.627999782562256 C-7.340000152587891,-5.627999782562256 -7.340000152587891,11.010000228881836 -7.340000152587891,11.010000228881836z"></path></g></g></g></svg>