<svg xmlns="http://www.w3.org/2000/svg" viewBox="0 0 579 335" width="579" height="335"
    preserveAspectRatio="xMidYMid meet" style="width: 100%; height: 100%; transform: translate3d(0px, 0px, 0px);">
    <defs>
        <clipPath id="__lottie_element_2">
            <rect width="579" height="335" x="0" y="0"></rect>
        </clipPath>
        <filter id="__lottie_element_16" filterUnits="objectBoundingBox" x="0%" y="0%" width="100%" height="100%">
            <feComponentTransfer in="SourceGraphic">
                <feFuncA type="table" tableValues="1.0 0.0"></feFuncA>
            </feComponentTransfer>
        </filter>
        <mask id="__lottie_element_15" mask-type="alpha">
            <g filter="url(#__lottie_element_16)">
                <rect width="579" height="335" x="0" y="0" fill="#ffffff" opacity="0"></rect>
                <g transform="matrix(1,0,0,1,567.6510009765625,243)" opacity="1" style="display: block;">
                    <g opacity="1" transform="matrix(1,0,0,1,0,0)">
                        <path fill="rgb(255,0,0)" fill-opacity="1"
                            d=" M-146,-53.5 C-146,-53.5 -160,-50 -160,-50 C-160,-50 -162,-22 -162,-22 C-162,-22 -145,-30 -145,-30 C-145,-30 -146,-53.5 -146,-53.5z">
                        </path>
                    </g>
                </g>
            </g>
        </mask>
        <filter id="__lottie_element_38" filterUnits="objectBoundingBox" x="0%" y="0%" width="100%" height="100%">
            <feComponentTransfer in="SourceGraphic">
                <feFuncA type="table" tableValues="1.0 0.0"></feFuncA>
            </feComponentTransfer>
        </filter>
        <mask id="__lottie_element_37" mask-type="alpha">
            <g filter="url(#__lottie_element_38)">
                <rect width="579" height="335" x="0" y="0" fill="#ffffff" opacity="0"></rect>
                <g transform="matrix(1,0,0,1,401.3500061035156,214.91000366210938)" opacity="1" style="display: block;">
                    <g opacity="1" transform="matrix(1,0,0,1,0,0)">
                        <path fill="rgb(255,0,0)" fill-opacity="1"
                            d=" M-146,-53.5 C-146,-53.5 -160,-50 -160,-50 C-160,-50 -162,-22 -162,-22 C-162,-22 -145,-30 -145,-30 C-145,-30 -146,-53.5 -146,-53.5z">
                        </path>
                    </g>
                </g>
            </g>
        </mask>
        <filter id="__lottie_element_54" filterUnits="objectBoundingBox" x="0%" y="0%" width="100%" height="100%">
            <feComponentTransfer in="SourceGraphic">
                <feFuncA type="table" tableValues="1.0 0.0"></feFuncA>
            </feComponentTransfer>
        </filter>
        <mask id="__lottie_element_53" mask-type="alpha">
            <g filter="url(#__lottie_element_54)">
                <rect width="579" height="335" x="0" y="0" fill="#ffffff" opacity="0"></rect>
                <g transform="matrix(1,0,0,1,289.5,167.5)" opacity="1" style="display: block;">
                    <g opacity="1" transform="matrix(1,0,0,1,0,0)">
                        <path fill="rgb(255,0,0)" fill-opacity="1"
                            d=" M-146,-53.5 C-146,-53.5 -160,-50 -160,-50 C-160,-50 -162,-22 -162,-22 C-162,-22 -145,-30 -145,-30 C-145,-30 -146,-53.5 -146,-53.5z">
                        </path>
                    </g>
                </g>
            </g>
        </mask>
    </defs>
    <g clip-path="url(#__lottie_element_2)">
        <g style="display: block;" transform="matrix(1,0,0,1,0.75,76.16000366210938)" opacity="1">
            <g opacity="1" transform="matrix(1,0,0,1,67.5999984741211,23.149999618530273)">
                <path fill="rgb(244,244,244)" fill-opacity="1"
                    d=" M-67.3499984741211,15.699999809265137 C-67.3499984741211,15.699999809265137 -67.3499984741211,11.699999809265137 -67.3499984741211,11.699999809265137 C-67.3499984741211,11.699999809265137 -65.94999694824219,8.800000190734863 -65.94999694824219,8.800000190734863 C-65.94999694824219,8.800000190734863 -62.75,6.300000190734863 -62.75,6.300000190734863 C-62.75,6.300000190734863 3.6500000953674316,-22.899999618530273 3.6500000953674316,-22.899999618530273 C3.6500000953674316,-22.899999618530273 5.050000190734863,-22.899999618530273 5.050000190734863,-22.899999618530273 C5.050000190734863,-22.899999618530273 63.45000076293945,6.300000190734863 63.45000076293945,6.300000190734863 C63.45000076293945,6.300000190734863 65.94999694824219,8.800000190734863 65.94999694824219,8.800000190734863 C65.94999694824219,8.800000190734863 67.3499984741211,11.699999809265137 67.3499984741211,11.699999809265137 C67.3499984741211,11.699999809265137 67.3499984741211,13.899999618530273 67.3499984741211,13.899999618530273 C67.3499984741211,13.899999618530273 48.25,20.399999618530273 48.25,20.399999618530273 C48.25,20.399999618530273 17.649999618530273,22.899999618530273 17.649999618530273,22.899999618530273 C17.649999618530273,22.899999618530273 -20.149999618530273,21.799999237060547 -20.149999618530273,21.799999237060547 C-20.149999618530273,21.799999237060547 -50.75,19.299999237060547 -50.75,19.299999237060547 C-50.75,19.299999237060547 -67.3499984741211,15.699999809265137 -67.3499984741211,15.699999809265137z">
                </path>
            </g>
        </g>
        <g transform="matrix(1,0,0,1,0.75,76.16000366210938)" opacity="1" style="display: block;">
            <g opacity="1" transform="matrix(1,0,0,1,67.6500015258789,81.75)">
                <path fill="rgb(255,255,255)" fill-opacity="1"
                    d=" M67.4000015258789,-46.900001525878906 C55.099998474121094,-34.29999923706055 -51.29999923706055,-34.70000076293945 -67.4000015258789,-46.900001525878906 C-67.4000015258789,-46.900001525878906 -67.4000015258789,23.399999618530273 -67.4000015258789,23.399999618530273 C-67.4000015258789,23.399999618530273 -67,27.700000762939453 -67,27.700000762939453 C-67,27.700000762939453 -64.80000305175781,31.700000762939453 -64.80000305175781,31.700000762939453 C-64.80000305175781,31.700000762939453 -59.400001525878906,36 -59.400001525878906,36 C-59.400001525878906,36 -50,40.29999923706055 -50,40.29999923706055 C-50,40.29999923706055 -42.099998474121094,42.5 -42.099998474121094,42.5 C-42.099998474121094,42.5 -31.700000762939453,44.70000076293945 -31.700000762939453,44.70000076293945 C-31.700000762939453,44.70000076293945 -20.200000762939453,45.79999923706055 -20.200000762939453,45.79999923706055 C-20.200000762939453,45.79999923706055 -9.399999618530273,46.5 -9.399999618530273,46.5 C-9.399999618530273,46.5 0.30000001192092896,46.900001525878906 0.30000001192092896,46.900001525878906 C0.30000001192092896,46.900001525878906 3.5,46.5 3.5,46.5 C3.5,46.5 9.600000381469727,46.5 9.600000381469727,46.5 C9.600000381469727,46.5 20.399999618530273,45.79999923706055 20.399999618530273,45.79999923706055 C20.399999618530273,45.79999923706055 28.700000762939453,44.70000076293945 28.700000762939453,44.70000076293945 C28.700000762939453,44.70000076293945 38.099998474121094,43.29999923706055 38.099998474121094,43.29999923706055 C38.099998474121094,43.29999923706055 43.900001525878906,41.900001525878906 43.900001525878906,41.900001525878906 C43.900001525878906,41.900001525878906 53.29999923706055,39 53.29999923706055,39 C53.29999923706055,39 60.900001525878906,35 60.900001525878906,35 C60.900001525878906,35 65.19999694824219,31.399999618530273 65.19999694824219,31.399999618530273 C65.19999694824219,31.399999618530273 67.4000015258789,26.399999618530273 67.4000015258789,26.399999618530273 C67.4000015258789,26.399999618530273 67.4000015258789,-46.900001525878906 67.4000015258789,-46.900001525878906z">
                </path>
            </g>
        </g>
        <g mask="url(#__lottie_element_53)" style="display: block;">
            <g transform="matrix(1,0,0,1,-0.29999542236328125,74.80999755859375)" opacity="1">
                <g opacity="1" transform="matrix(1,0,0,1,68.69999694824219,69.19999694824219)">
                    <path stroke-linecap="butt" stroke-linejoin="miter" fill-opacity="0" stroke-miterlimit="4"
                        stroke="rgb(107,107,107)" stroke-opacity="1" stroke-width="1.3"
                        d=" M67.4000015258789,38.70000076293945 C67.4000015258789,67.9000015258789 -67.4000015258789,67.9000015258789 -67.4000015258789,38.70000076293945 C-67.4000015258789,38.70000076293945 -67.4000015258789,-29.700000762939453 -67.4000015258789,-29.700000762939453 C-67.4000015258789,-33.70000076293945 -65.0999984741211,-37.20000076293945 -61.400001525878906,-38.79999923706055 C-61.400001525878906,-38.79999923706055 4.699999809265137,-67.9000015258789 4.699999809265137,-67.9000015258789 C4.699999809265137,-67.9000015258789 61.900001525878906,-39 61.900001525878906,-39 C65.30000305175781,-37.29999923706055 67.4000015258789,-33.900001525878906 67.4000015258789,-30.100000381469727 C67.4000015258789,-30.100000381469727 67.4000015258789,38.70000076293945 67.4000015258789,38.70000076293945z">
                    </path>
                </g>
                <g opacity="1" transform="matrix(1,0,0,1,71.19999694824219,65.19999694824219)">
                    <path stroke-linecap="butt" stroke-linejoin="miter" fill-opacity="0" stroke-miterlimit="4"
                        stroke="rgb(107,107,107)" stroke-opacity="1" stroke-width="0.8"
                        d=" M2.200000047683716,-64 C2.200000047683716,-64 -49.400001525878906,-22.899999618530273 -49.400001525878906,-22.899999618530273 C-49.400001525878906,-22.899999618530273 -49.400001525878906,58.900001525878906 -49.400001525878906,58.900001525878906 M2.200000047683716,-64 C2.200000047683716,-64 49.400001525878906,-22.899999618530273 49.400001525878906,-22.899999618530273 C49.400001525878906,-22.899999618530273 49.46200180053711,-18.58799934387207 49.46200180053711,-18.58799934387207 M2.200000047683716,-64 C2.200000047683716,-64 -18.700000762939453,-20 -18.700000762939453,-20 C-18.700000762939453,-20 -18.700000762939453,64 -18.700000762939453,64 M2.200000047683716,-64 C2.200000047683716,-64 17.700000762939453,-20 17.700000762939453,-20 C17.700000762939453,-20 17.700000762939453,64 17.700000762939453,64">
                    </path>
                </g>
            </g>
        </g>
        <g style="display: block;" transform="matrix(1,0,0,1,229,79.26000213623047)" opacity="1">
            <g opacity="1" transform="matrix(1,0,0,1,21.25,46)">
                <path fill="rgb(217,217,217)" fill-opacity="1"
                    d=" M-10.75,1.2990000247955322 C-10.75,1.2990000247955322 -10.75,-38.75 -10.75,-38.75 C-10.75,-38.75 4.25,-36.25 4.25,-36.25 C4.25,-36.25 10.75,-37.25 10.75,-37.25 C10.75,-37.25 10.75,31.25 10.75,31.25 C10.75,31.25 -5.75,38.75 -5.75,38.75 C-5.75,38.75 -5.75,12.25 -5.75,12.25 C-5.75,12.25 -6.25,6.541999816894531 -6.25,6.541999816894531 C-6.25,6.541999816894531 -7.985000133514404,3.6459999084472656 -7.985000133514404,3.6459999084472656 C-7.985000133514404,3.6459999084472656 -10.75,1.2990000247955322 -10.75,1.2990000247955322z">
                </path>
            </g>
            <g opacity="1" transform="matrix(1,0,0,1,21.5,35.75)">
                <path stroke-linecap="butt" stroke-linejoin="miter" fill-opacity="0" stroke-miterlimit="4"
                    stroke="rgb(107,107,107)" stroke-opacity="1" stroke-width="1"
                    d=" M-20.5,-3 C-20.5,-3 4,3 4,3 C4,3 20.5,-3 20.5,-3"></path>
            </g>
            <g opacity="1" transform="matrix(1,0,0,1,8,30.75)">
                <path stroke-linecap="butt" stroke-linejoin="miter" fill-opacity="0" stroke-miterlimit="4"
                    stroke="rgb(107,107,107)" stroke-opacity="1" stroke-width="1" d=" M-7,2 C-7,2 7,-2 7,-2"></path>
            </g>
            <g opacity="1" transform="matrix(1,0,0,1,13.5,4.25)">
                <path fill="rgb(107,107,107)" fill-opacity="1"
                    d=" M3.5,-0.5 C3.5,-0.5 3.5,4 3.5,4 C3.5,4 -3,3 -3,3 C-3.5,-4 0,-4 0,-4 C1.899999976158142,-4 3.5,-2.4000000953674316 3.5,-0.5z">
                </path>
            </g>
            <g opacity="1" transform="matrix(1,0,0,1,21.299999237060547,5.75)">
                <path fill="rgb(107,107,107)" fill-opacity="1"
                    d=" M3.700000047683716,-0.800000011920929 C3.700000047683716,-0.800000011920929 3.700000047683716,4.5 3.700000047683716,4.5 C3.700000047683716,4.5 -3.200000047683716,2.5 -3.200000047683716,2.5 C-3.700000047683716,-4.5 0,-4.5 0,-4.5 C2,-4.5 3.700000047683716,-2.799999952316284 3.700000047683716,-0.800000011920929z">
                </path>
            </g>
            <g opacity="1" transform="matrix(1,0,0,1,29.25,6.5)">
                <path fill="rgb(107,107,107)" fill-opacity="1"
                    d=" M3.75,-0.6499999761581421 C3.75,-0.6499999761581421 3.75,4.25 3.75,4.25 C3.75,4.25 -3.25,3.25 -3.25,3.25 C-3.75,-2.950000047683716 -0.8500000238418579,-4.050000190734863 -0.15000000596046448,-4.25 C-0.15000000596046448,-4.25 0.15000000596046448,-4.25 0.15000000596046448,-4.25 C2.1500000953674316,-4.25 3.75,-2.6500000953674316 3.75,-0.6499999761581421z">
                </path>
            </g>
            <g opacity="1" transform="matrix(1,0,0,1,6,4.25)">
                <path stroke-linecap="butt" stroke-linejoin="miter" fill-opacity="0" stroke-miterlimit="4"
                    stroke="rgb(107,107,107)" stroke-opacity="1" stroke-width="1" d=" M-5.5,1 C-5.5,1 5.5,-1 5.5,-1">
                </path>
            </g>
            <g opacity="1" transform="matrix(1,0,0,1,21.5,39.349998474121094)">
                <path stroke-linecap="butt" stroke-linejoin="miter" fill-opacity="0" stroke-miterlimit="4"
                    stroke="rgb(107,107,107)" stroke-opacity="1" stroke-width="1"
                    d=" M-20.5,3.4000000953674316 C-20.5,3.4000000953674316 -20.5,-33.900001525878906 -20.5,-33.900001525878906 C-20.5,-33.900001525878906 4,-29.299999237060547 4,-29.299999237060547 M4,-29.299999237060547 C4,-29.299999237060547 20.5,-33.599998474121094 20.5,-33.599998474121094 C20.5,-33.599998474121094 20.5,33.900001525878906 20.5,33.900001525878906 M4,-29.299999237060547 C4,-29.299999237060547 4,40.900001525878906 4,40.900001525878906">
                </path>
            </g>
            <g opacity="1" transform="matrix(1,0,0,1,32,42.75)">
                <path fill="rgb(107,107,107)" fill-opacity="1"
                    d=" M-1,-34.5 C-1,-34.5 1,-34.5 1,-34.5 C1,-34.5 1,34.5 1,34.5 C1,34.5 -1,34.5 -1,34.5 C-1,34.5 -1,-34.5 -1,-34.5z">
                </path>
            </g>
            <g opacity="1" transform="matrix(1,0,0,1,29,44.25)">
                <path fill="rgb(107,107,107)" fill-opacity="1"
                    d=" M-1,-35 C-1,-35 1,-35 1,-35 C1,-35 1,34 1,34 C1,34 -1,35 -1,35 C-1,35 -1,-35 -1,-35z"></path>
            </g>
            <g opacity="1" transform="matrix(1,0,0,1,22,45.75)">
                <path fill="rgb(107,107,107)" fill-opacity="1"
                    d=" M-1,-36.5 C-1,-36.5 1,-36.5 1,-36.5 C1,-36.5 1,35.5 1,35.5 C1,35.5 -1,36.5 -1,36.5 C-1,36.5 -1,-36.5 -1,-36.5z">
                </path>
            </g>
            <g opacity="1" transform="matrix(1,0,0,1,19,46.25)">
                <path fill="rgb(107,107,107)" fill-opacity="1"
                    d=" M-1,-38 C-1,-38 1,-37.400001525878906 1,-37.400001525878906 C1,-37.400001525878906 1,36.5 1,36.5 C1,36.5 -1,38 -1,38 C-1,38 -1,-38 -1,-38z">
                </path>
            </g>
            <g opacity="1" transform="matrix(1,0,0,1,16,46.25)">
                <path fill="rgb(107,107,107)" fill-opacity="1"
                    d=" M-1,-38 C-1,-38 1,-38 1,-38 C1,-38 1,38 1,38 C1,38 -1,38 -1,38 C-1,38 -1,-38 -1,-38z"></path>
            </g>
            <g opacity="1" transform="matrix(1,0,0,1,21.75,14.5)">
                <path stroke-linecap="butt" stroke-linejoin="miter" fill-opacity="0" stroke-miterlimit="4"
                    stroke="rgb(107,107,107)" stroke-opacity="1" stroke-width="1"
                    d=" M-20.75,-2.25 C-20.75,-2.25 3.75,2.25 3.75,2.25 C3.75,2.25 20.75,-2.25 20.75,-2.25"></path>
            </g>
            <g opacity="1" transform="matrix(1,0,0,1,8.5,10.5)">
                <path stroke-linecap="butt" stroke-linejoin="miter" fill-opacity="0" stroke-miterlimit="4"
                    stroke="rgb(107,107,107)" stroke-opacity="1" stroke-width="1"
                    d=" M-7.5,1.75 C-7.5,1.75 7.5,-1.75 7.5,-1.75"></path>
            </g>
        </g>
        <g style="display: block;" transform="matrix(1,0,0,1,100.6500015258789,96.05999755859375)" opacity="1">
            <g opacity="1" transform="matrix(1,0,0,1,71.75,24.600000381469727)">
                <path fill="rgb(244,244,244)" fill-opacity="1"
                    d=" M-71.5,16.649999618530273 C-71.5,16.649999618530273 -71.5,12.449999809265137 -71.5,12.449999809265137 C-71.5,12.449999809265137 -70,9.350000381469727 -70,9.350000381469727 C-70,9.350000381469727 -66.5999984741211,6.650000095367432 -66.5999984741211,6.650000095367432 C-66.5999984741211,6.650000095367432 3.799999952316284,-24.350000381469727 3.799999952316284,-24.350000381469727 C3.799999952316284,-24.350000381469727 5.300000190734863,-24.350000381469727 5.300000190734863,-24.350000381469727 C5.300000190734863,-24.350000381469727 67.30000305175781,6.650000095367432 67.30000305175781,6.650000095367432 C67.30000305175781,6.650000095367432 70,9.350000381469727 70,9.350000381469727 C70,9.350000381469727 71.5,12.449999809265137 71.5,12.449999809265137 C71.5,12.449999809265137 71.5,14.75 71.5,14.75 C71.5,14.75 51.20000076293945,21.649999618530273 51.20000076293945,21.649999618530273 C51.20000076293945,21.649999618530273 18.700000762939453,24.350000381469727 18.700000762939453,24.350000381469727 C18.700000762939453,24.350000381469727 -21.399999618530273,23.149999618530273 -21.399999618530273,23.149999618530273 C-21.399999618530273,23.149999618530273 -53.900001525878906,20.450000762939453 -53.900001525878906,20.450000762939453 C-53.900001525878906,20.450000762939453 -71.5,16.649999618530273 -71.5,16.649999618530273z">
                </path>
            </g>
        </g>
        <g transform="matrix(1,0,0,1,100.6500015258789,96.05999755859375)" opacity="1" style="display: block;">
            <g opacity="1" transform="matrix(1,0,0,1,71.8499984741211,86.8499984741211)">
                <path fill="rgb(255,255,255)" fill-opacity="1"
                    d=" M71.5999984741211,-49.79999923706055 C58.599998474121094,-36.400001525878906 -54.5,-36.79999923706055 -71.5999984741211,-49.79999923706055 C-71.5999984741211,-49.79999923706055 -71.5999984741211,24.899999618530273 -71.5999984741211,24.899999618530273 C-71.5999984741211,24.899999618530273 -71.19999694824219,29.5 -71.19999694824219,29.5 C-71.19999694824219,29.5 -68.9000015258789,33.70000076293945 -68.9000015258789,33.70000076293945 C-68.9000015258789,33.70000076293945 -63.20000076293945,38.29999923706055 -63.20000076293945,38.29999923706055 C-63.20000076293945,38.29999923706055 -53.20000076293945,42.900001525878906 -53.20000076293945,42.900001525878906 C-53.20000076293945,42.900001525878906 -44.79999923706055,45.20000076293945 -44.79999923706055,45.20000076293945 C-44.79999923706055,45.20000076293945 -33.70000076293945,47.5 -33.70000076293945,47.5 C-33.70000076293945,47.5 -21.5,48.599998474121094 -21.5,48.599998474121094 C-21.5,48.599998474121094 -10,49.400001525878906 -10,49.400001525878906 C-10,49.400001525878906 0.30000001192092896,49.79999923706055 0.30000001192092896,49.79999923706055 C0.30000001192092896,49.79999923706055 3.700000047683716,49.400001525878906 3.700000047683716,49.400001525878906 C3.700000047683716,49.400001525878906 10.199999809265137,49.400001525878906 10.199999809265137,49.400001525878906 C10.199999809265137,49.400001525878906 21.700000762939453,48.599998474121094 21.700000762939453,48.599998474121094 C21.700000762939453,48.599998474121094 30.5,47.5 30.5,47.5 C30.5,47.5 40.5,46 40.5,46 C40.5,46 46.599998474121094,44.5 46.599998474121094,44.5 C46.599998474121094,44.5 56.599998474121094,41.400001525878906 56.599998474121094,41.400001525878906 C56.599998474121094,41.400001525878906 64.5999984741211,37.20000076293945 64.5999984741211,37.20000076293945 C64.5999984741211,37.20000076293945 69.19999694824219,33.400001525878906 69.19999694824219,33.400001525878906 C69.19999694824219,33.400001525878906 71.5,28 71.5,28 C71.5,28 71.5,-49.79999923706055 71.5,-49.79999923706055 C71.5,-49.79999923706055 71.5999984741211,-49.79999923706055 71.5999984741211,-49.79999923706055z">
                </path>
            </g>
        </g>
        <g mask="url(#__lottie_element_37)" style="display: block;">
            <g transform="matrix(1,0,0,1,99.5999984741211,94.71000671386719)" opacity="1">
                <g opacity="1" transform="matrix(1,0,0,1,72.9000015258789,73.44999694824219)">
                    <path stroke-linecap="butt" stroke-linejoin="miter" fill-opacity="0" stroke-miterlimit="4"
                        stroke="rgb(107,107,107)" stroke-opacity="1" stroke-width="1.3"
                        d=" M71.5999984741211,41.150001525878906 C71.5999984741211,72.1500015258789 -71.5999984741211,72.1500015258789 -71.5999984741211,41.150001525878906 C-71.5999984741211,41.150001525878906 -71.5999984741211,-31.950000762939453 -71.5999984741211,-31.950000762939453 C-71.5999984741211,-35.95000076293945 -69.30000305175781,-39.45000076293945 -65.5999984741211,-41.04999923706055 C-65.5999984741211,-41.04999923706055 5,-72.1500015258789 5,-72.1500015258789 C5,-72.1500015258789 66.0999984741211,-41.25 66.0999984741211,-41.25 C69.5,-39.54999923706055 71.5999984741211,-36.150001525878906 71.5999984741211,-32.349998474121094 C71.5999984741211,-32.349998474121094 71.5999984741211,41.150001525878906 71.5999984741211,41.150001525878906z">
                    </path>
                </g>
                <g opacity="1" transform="matrix(1,0,0,1,75.6500015258789,69.1500015258789)">
                    <path stroke-linecap="butt" stroke-linejoin="miter" fill-opacity="0" stroke-miterlimit="4"
                        stroke="rgb(107,107,107)" stroke-opacity="1" stroke-width="0.8"
                        d=" M2.25,-67.94999694824219 C2.25,-67.94999694824219 -52.45000076293945,-24.350000381469727 -52.45000076293945,-24.350000381469727 C-52.45000076293945,-24.350000381469727 -52.45000076293945,62.650001525878906 -52.45000076293945,62.650001525878906 M2.25,-67.94999694824219 C2.25,-67.94999694824219 52.45000076293945,-24.350000381469727 52.45000076293945,-24.350000381469727 C52.45000076293945,-24.350000381469727 52.45000076293945,60.650001525878906 52.45000076293945,60.650001525878906 M2.25,-67.94999694824219 C2.25,-67.94999694824219 -19.950000762939453,-21.25 -19.950000762939453,-21.25 C-19.950000762939453,-21.25 -19.950000762939453,67.94999694824219 -19.950000762939453,67.94999694824219 M2.25,-67.94999694824219 C2.25,-67.94999694824219 18.75,-21.25 18.75,-21.25 C18.75,-21.25 18.75,67.94999694824219 18.75,67.94999694824219">
                    </path>
                </g>
            </g>
        </g>
        <g style="display: block;" transform="matrix(1,0,0,1,208.1999969482422,117.91000366210938)" opacity="1">
            <g opacity="1" transform="matrix(1,0,0,1,18.399999618530273,108.85099792480469)">
                <path fill="rgb(210,210,210)" fill-opacity="1"
                    d=" M11.300000190734863,-4.151000022888184 C11.300000190734863,-4.151000022888184 13.800000190734863,-8.151000022888184 13.800000190734863,-8.151000022888184 C13.800000190734863,-8.151000022888184 7.400000095367432,-7.151000022888184 7.400000095367432,-7.151000022888184 C7.400000095367432,-7.151000022888184 -0.5,-6.651000022888184 -0.5,-6.651000022888184 C-0.5,-6.651000022888184 -7.400000095367432,-7.151000022888184 -7.400000095367432,-7.151000022888184 C-7.400000095367432,-7.151000022888184 -12.300000190734863,-8.151000022888184 -12.300000190734863,-8.151000022888184 C-12.300000190734863,-8.151000022888184 -13.800000190734863,-9.151000022888184 -13.800000190734863,-9.151000022888184 C-13.800000190734863,-9.151000022888184 -1.399999976158142,9.149999618530273 -1.399999976158142,9.149999618530273 C-1.399999976158142,9.149999618530273 3,9.149999618530273 3,9.149999618530273 C3,9.149999618530273 11.300000190734863,-4.151000022888184 11.300000190734863,-4.151000022888184z">
                </path>
            </g>
            <g opacity="1" transform="matrix(1,0,0,1,18.75,9.350000381469727)">
                <path fill="rgb(255,255,255)" fill-opacity="1"
                    d=" M-1.350000023841858,-7.349999904632568 C-1.350000023841858,-7.349999904632568 -17.75,3.8499999046325684 -17.75,3.8499999046325684 C-17.75,3.8499999046325684 -17.75,4.849999904632568 -17.75,4.849999904632568 C-17.75,4.849999904632568 -15.25,6.349999904632568 -15.25,6.349999904632568 C-15.25,6.349999904632568 -9.350000381469727,7.849999904632568 -9.350000381469727,7.849999904632568 C-9.350000381469727,7.849999904632568 -3.450000047683716,8.350000381469727 -3.450000047683716,8.350000381469727 C-3.450000047683716,8.350000381469727 2.450000047683716,8.350000381469727 2.450000047683716,8.350000381469727 C2.450000047683716,8.350000381469727 7.849999904632568,7.849999904632568 7.849999904632568,7.849999904632568 C7.849999904632568,7.849999904632568 12.75,7.349999904632568 12.75,7.349999904632568 C12.75,7.349999904632568 15.75,6.349999904632568 15.75,6.349999904632568 C15.75,6.349999904632568 17.75,4.849999904632568 17.75,4.849999904632568 C17.75,4.849999904632568 17.75,3.8499999046325684 17.75,3.8499999046325684 C17.75,3.8499999046325684 3.25,-7.25 3.25,-7.25 C1.9500000476837158,-8.350000381469727 0.15000000596046448,-8.350000381469727 -1.350000023841858,-7.349999904632568z">
                </path>
            </g>
            <g opacity="1" transform="matrix(1,0,0,1,18.850000381469727,58.150001525878906)">
                <path fill="rgb(244,244,244)" fill-opacity="1"
                    d=" M-15.350000381469727,-42.54999923706055 C-15.350000381469727,-42.54999923706055 -17.850000381469727,-44.04999923706055 -17.850000381469727,-44.04999923706055 C-17.850000381469727,-44.04999923706055 -17.850000381469727,38.54999923706055 -17.850000381469727,38.54999923706055 C-17.850000381469727,38.54999923706055 -16.350000381469727,40.54999923706055 -16.350000381469727,40.54999923706055 C-16.350000381469727,40.54999923706055 -12.350000381469727,42.54999923706055 -12.350000381469727,42.54999923706055 C-12.350000381469727,42.54999923706055 -5.949999809265137,44.04999923706055 -5.949999809265137,44.04999923706055 C-5.949999809265137,44.04999923706055 0.949999988079071,44.04999923706055 0.949999988079071,44.04999923706055 C0.949999988079071,44.04999923706055 4.449999809265137,43.54999923706055 4.449999809265137,43.54999923706055 C4.449999809265137,43.54999923706055 7.449999809265137,43.54999923706055 7.449999809265137,43.54999923706055 C7.449999809265137,43.54999923706055 12.850000381469727,42.54999923706055 12.850000381469727,42.54999923706055 C12.850000381469727,42.54999923706055 16.850000381469727,40.54999923706055 16.850000381469727,40.54999923706055 C16.850000381469727,40.54999923706055 17.850000381469727,38.54999923706055 17.850000381469727,38.54999923706055 C17.850000381469727,38.54999923706055 17.850000381469727,-43.95000076293945 17.850000381469727,-43.95000076293945 C17.850000381469727,-43.95000076293945 15.850000381469727,-42.45000076293945 15.850000381469727,-42.45000076293945 C15.850000381469727,-42.45000076293945 10.949999809265137,-41.45000076293945 10.949999809265137,-41.45000076293945 C10.949999809265137,-41.45000076293945 3.549999952316284,-40.45000076293945 3.549999952316284,-40.45000076293945 C3.549999952316284,-40.45000076293945 -4.849999904632568,-40.45000076293945 -4.849999904632568,-40.45000076293945 C-4.849999904632568,-40.45000076293945 -11.25,-41.45000076293945 -11.25,-41.45000076293945 C-11.25,-41.45000076293945 -15.350000381469727,-42.54999923706055 -15.350000381469727,-42.54999923706055z">
                </path>
            </g>
            <g opacity="1" transform="matrix(1,0,0,1,26,63.599998474121094)">
                <path stroke-linecap="butt" stroke-linejoin="miter" fill-opacity="0" stroke-miterlimit="4"
                    stroke="rgb(107,107,107)" stroke-opacity="1" stroke-width="0.5"
                    d=" M-9.199999809265137,-61 C-9.199999809265137,-61 3.200000047683716,-51.5 3.200000047683716,-51.5 C5.699999809265137,-49.599998474121094 7.099999904632568,-46.70000076293945 7.099999904632568,-43.599998474121094 C7.099999904632568,-43.599998474121094 7.099999904632568,60.79999923706055 7.099999904632568,60.79999923706055 M9.199999809265137,61.79999923706055 C9.199999809265137,61.79999923706055 9.199999809265137,-44 9.199999809265137,-44 C9.199999809265137,-47.099998474121094 7.699999809265137,-50.099998474121094 5.300000190734863,-51.900001525878906 C5.300000190734863,-51.900001525878906 -7.599999904632568,-61.79999923706055 -7.599999904632568,-61.79999923706055">
                </path>
            </g>
            <g opacity="1" transform="matrix(1,0,0,1,18.799999237060547,59.54999923706055)">
                <path stroke-linecap="butt" stroke-linejoin="miter" fill-opacity="0" stroke-miterlimit="4"
                    stroke="rgb(107,107,107)" stroke-opacity="1" stroke-width="1"
                    d=" M17.799999237060547,-46.349998474121094 C17.799999237060547,-46.349998474121094 17.799999237060547,36.750999450683594 17.799999237060547,36.750999450683594 C17.799999237060547,38.349998474121094 16.299999237060547,39.650001525878906 13.800000190734863,40.650001525878906 M17.799999237060547,-46.349998474121094 C17.799999237060547,-40.45000076293945 -17.799999237060547,-40.45000076293945 -17.799999237060547,-46.349998474121094 M17.799999237060547,-46.349998474121094 C17.799999237060547,-46.349998474121094 3.299999952316284,-57.45000076293945 3.299999952316284,-57.45000076293945 C1.899999976158142,-58.45000076293945 0,-58.54999923706055 -1.399999976158142,-57.54999923706055 C-1.399999976158142,-57.54999923706055 -17.799999237060547,-46.349998474121094 -17.799999237060547,-46.349998474121094 M-17.799999237060547,-46.349998474121094 C-17.799999237060547,-46.349998474121094 -17.799999237060547,36.750999450683594 -17.799999237060547,36.750999450683594 C-17.799999237060547,38.150001525878906 -16.700000762939453,39.349998474121094 -14.800000190734863,40.250999450683594 M13.899999618530273,40.650001525878906 C13.899999618530273,40.650001525878906 2.5,58.54999923706055 2.5,58.54999923706055 C2.5,58.54999923706055 -2,58.54999923706055 -2,58.54999923706055 C-2,58.54999923706055 -14.899999618530273,40.250999450683594 -14.899999618530273,40.250999450683594 M13.899999618530273,40.650001525878906 C6.699999809265137,43.45100021362305 -8.399999618530273,43.349998474121094 -14.800000190734863,40.250999450683594">
                </path>
            </g>
        </g>
        <g style="display: block;" transform="matrix(1,0,0,1,177,128.2100067138672)" opacity="1">
            <g opacity="1" transform="matrix(1,0,0,1,18.75,9.350000381469727)">
                <path fill="rgb(255,255,255)" fill-opacity="1"
                    d=" M-1.350000023841858,-7.449999809265137 C-1.350000023841858,-7.449999809265137 -17.75,3.8499999046325684 -17.75,3.8499999046325684 C-17.75,3.8499999046325684 -17.75,4.849999904632568 -17.75,4.849999904632568 C-17.75,4.849999904632568 -15.25,6.349999904632568 -15.25,6.349999904632568 C-15.25,6.349999904632568 -9.350000381469727,7.849999904632568 -9.350000381469727,7.849999904632568 C-9.350000381469727,7.849999904632568 -3.450000047683716,8.350000381469727 -3.450000047683716,8.350000381469727 C-3.450000047683716,8.350000381469727 2.450000047683716,8.350000381469727 2.450000047683716,8.350000381469727 C2.450000047683716,8.350000381469727 7.849999904632568,7.849999904632568 7.849999904632568,7.849999904632568 C7.849999904632568,7.849999904632568 12.75,7.349999904632568 12.75,7.349999904632568 C12.75,7.349999904632568 15.75,6.349999904632568 15.75,6.349999904632568 C15.75,6.349999904632568 17.75,4.849999904632568 17.75,4.849999904632568 C17.75,4.849999904632568 17.75,3.8499999046325684 17.75,3.8499999046325684 C17.75,3.8499999046325684 3.25,-7.25 3.25,-7.25 C1.9500000476837158,-8.350000381469727 0.05000000074505806,-8.350000381469727 -1.350000023841858,-7.449999809265137z">
                </path>
            </g>
            <g opacity="1" transform="matrix(1,0,0,1,18.399999618530273,108.75)">
                <path fill="rgb(210,210,210)" fill-opacity="1"
                    d=" M11.300000190734863,-4.150000095367432 C11.300000190734863,-4.150000095367432 13.800000190734863,-8.149999618530273 13.800000190734863,-8.149999618530273 C13.800000190734863,-8.149999618530273 7.400000095367432,-7.150000095367432 7.400000095367432,-7.150000095367432 C7.400000095367432,-7.150000095367432 -0.5,-6.650000095367432 -0.5,-6.650000095367432 C-0.5,-6.650000095367432 -7.400000095367432,-7.150000095367432 -7.400000095367432,-7.150000095367432 C-7.400000095367432,-7.150000095367432 -12.300000190734863,-8.149999618530273 -12.300000190734863,-8.149999618530273 C-12.300000190734863,-8.149999618530273 -13.800000190734863,-9.149999618530273 -13.800000190734863,-9.149999618530273 C-13.800000190734863,-9.149999618530273 -1.399999976158142,9.149999618530273 -1.399999976158142,9.149999618530273 C-1.399999976158142,9.149999618530273 3.0999999046325684,9.149999618530273 3.0999999046325684,9.149999618530273 C3.0999999046325684,9.149999618530273 11.300000190734863,-4.150000095367432 11.300000190734863,-4.150000095367432z">
                </path>
            </g>
            <g opacity="1" transform="matrix(1,0,0,1,18.850000381469727,58.1510009765625)">
                <path fill="rgb(244,244,244)" fill-opacity="1"
                    d=" M-15.350000381469727,-42.55099868774414 C-15.350000381469727,-42.55099868774414 -17.850000381469727,-44.05099868774414 -17.850000381469727,-44.05099868774414 C-17.850000381469727,-44.05099868774414 -17.850000381469727,38.55099868774414 -17.850000381469727,38.55099868774414 C-17.850000381469727,38.55099868774414 -16.350000381469727,40.55099868774414 -16.350000381469727,40.55099868774414 C-16.350000381469727,40.55099868774414 -12.350000381469727,42.55099868774414 -12.350000381469727,42.55099868774414 C-12.350000381469727,42.55099868774414 -5.949999809265137,44.05099868774414 -5.949999809265137,44.05099868774414 C-5.949999809265137,44.05099868774414 0.949999988079071,44.05099868774414 0.949999988079071,44.05099868774414 C0.949999988079071,44.05099868774414 4.449999809265137,43.55099868774414 4.449999809265137,43.55099868774414 C4.449999809265137,43.55099868774414 7.449999809265137,43.55099868774414 7.449999809265137,43.55099868774414 C7.449999809265137,43.55099868774414 12.850000381469727,42.55099868774414 12.850000381469727,42.55099868774414 C12.850000381469727,42.55099868774414 16.850000381469727,40.55099868774414 16.850000381469727,40.55099868774414 C16.850000381469727,40.55099868774414 17.850000381469727,38.55099868774414 17.850000381469727,38.55099868774414 C17.850000381469727,38.55099868774414 17.850000381469727,-44.05099868774414 17.850000381469727,-44.05099868774414 C17.850000381469727,-44.05099868774414 15.850000381469727,-42.55099868774414 15.850000381469727,-42.55099868774414 C15.850000381469727,-42.55099868774414 10.949999809265137,-41.55099868774414 10.949999809265137,-41.55099868774414 C10.949999809265137,-41.55099868774414 3.549999952316284,-40.55099868774414 3.549999952316284,-40.55099868774414 C3.549999952316284,-40.55099868774414 -4.849999904632568,-40.55099868774414 -4.849999904632568,-40.55099868774414 C-4.849999904632568,-40.55099868774414 -11.25,-41.55099868774414 -11.25,-41.55099868774414 C-11.25,-41.55099868774414 -15.350000381469727,-42.55099868774414 -15.350000381469727,-42.55099868774414z">
                </path>
            </g>
            <g opacity="1" transform="matrix(1,0,0,1,25.950000762939453,60.099998474121094)">
                <path stroke-linecap="butt" stroke-linejoin="miter" fill-opacity="0" stroke-miterlimit="4"
                    stroke="rgb(107,107,107)" stroke-opacity="1" stroke-width="0.5"
                    d=" M-9.149999618530273,-57.5 C-9.149999618530273,-57.5 3.25,-48 3.25,-48 C5.75,-46.0989990234375 7.150000095367432,-43.20000076293945 7.150000095367432,-40.0989990234375 C7.150000095367432,-40.0989990234375 7.150000095367432,57.29999923706055 7.150000095367432,57.29999923706055 M9.149999618530273,58.29999923706055 C9.149999618530273,58.29999923706055 9.149999618530273,-40.5 9.149999618530273,-40.5 C9.149999618530273,-43.5989990234375 7.650000095367432,-46.5989990234375 5.25,-48.400001525878906 C5.25,-48.400001525878906 -7.650000095367432,-58.29999923706055 -7.650000095367432,-58.29999923706055">
                </path>
            </g>
            <g opacity="1" transform="matrix(1,0,0,1,18.799999237060547,59.5)">
                <path stroke-linecap="butt" stroke-linejoin="miter" fill-opacity="0" stroke-miterlimit="4"
                    stroke="rgb(107,107,107)" stroke-opacity="1" stroke-width="1"
                    d=" M17.799999237060547,-46.29999923706055 C17.799999237060547,-46.29999923706055 17.799999237060547,36.79999923706055 17.799999237060547,36.79999923706055 C17.799999237060547,38.400001525878906 16.299999237060547,39.70100021362305 13.800000190734863,40.70100021362305 M17.799999237060547,-46.29999923706055 C17.799999237060547,-40.400001525878906 -17.799999237060547,-40.400001525878906 -17.799999237060547,-46.29999923706055 M17.799999237060547,-46.29999923706055 C17.799999237060547,-46.29999923706055 3.299999952316284,-57.400001525878906 3.299999952316284,-57.400001525878906 C1.899999976158142,-58.400001525878906 0,-58.5 -1.399999976158142,-57.5 C-1.399999976158142,-57.5 -17.799999237060547,-46.29999923706055 -17.799999237060547,-46.29999923706055 M-17.799999237060547,-46.29999923706055 C-17.799999237060547,-46.29999923706055 -17.799999237060547,36.79999923706055 -17.799999237060547,36.79999923706055 C-17.799999237060547,38.20100021362305 -16.700000762939453,39.400001525878906 -14.800000190734863,40.29999923706055 M13.899999618530273,40.599998474121094 C13.899999618530273,40.599998474121094 2.5,58.5 2.5,58.5 C2.5,58.5 -2,58.5 -2,58.5 C-2,58.5 -14.800000190734863,40.20100021362305 -14.800000190734863,40.20100021362305 M13.899999618530273,40.599998474121094 C6.699999809265137,43.400001525878906 -8.399999618530273,43.29999923706055 -14.800000190734863,40.20100021362305">
                </path>
            </g>
        </g>
        <g style="display: block;" transform="matrix(1,0,0,1,121.69999694824219,133.50999450683594)" opacity="1">
            <g opacity="1" transform="matrix(1,0,0,1,47.70000076293945,70.75)">
                <path fill="rgb(255,255,255)" fill-opacity="1"
                    d=" M13.600000381469727,39.54999923706055 C13.600000381469727,39.54999923706055 13.600000381469727,-49.95000076293945 13.600000381469727,-49.95000076293945 C13.600000381469727,-49.95000076293945 -13.600000381469727,-41.54999923706055 -13.600000381469727,-41.54999923706055 C-13.600000381469727,-41.54999923706055 -13.600000381469727,49.95000076293945 -13.600000381469727,49.95000076293945 C-13.600000381469727,49.95000076293945 13.600000381469727,39.54999923706055 13.600000381469727,39.54999923706055z">
                </path>
            </g>
            <g opacity="1" transform="matrix(1,0,0,1,28.75,4.949999809265137)">
                <path fill="rgb(241,241,241)" fill-opacity="1"
                    d=" M-9.949999809265137,3.950000047683716 C-9.949999809265137,3.950000047683716 -15.350000381469727,2.950000047683716 -15.350000381469727,2.950000047683716 C-15.350000381469727,2.950000047683716 12.350000381469727,-3.950000047683716 12.350000381469727,-3.950000047683716 C12.350000381469727,-3.950000047683716 15.350000381469727,-2.950000047683716 15.350000381469727,-2.950000047683716 C15.350000381469727,-2.950000047683716 -9.949999809265137,3.950000047683716 -9.949999809265137,3.950000047683716z">
                </path>
            </g>
            <g opacity="1" transform="matrix(1,0,0,1,39.79999923706055,15.600000381469727)">
                <path fill="rgb(255,255,255)" fill-opacity="1"
                    d=" M-21.5,-6.699999809265137 C-21.5,-6.699999809265137 -5.699999809265137,13.600000381469727 -5.699999809265137,13.600000381469727 C-5.699999809265137,13.600000381469727 21.5,5.199999809265137 21.5,5.199999809265137 C21.5,5.199999809265137 5.199999809265137,-13.600000381469727 5.199999809265137,-13.600000381469727 C5.199999809265137,-13.600000381469727 -21.5,-6.699999809265137 -21.5,-6.699999809265137z">
                </path>
            </g>
            <g opacity="1" transform="matrix(1,0,0,1,17.700000762939453,64.4000015258789)">
                <path fill="rgb(244,244,244)" fill-opacity="1"
                    d=" M-16.299999237060547,42.500999450683594 C-16.299999237060547,42.500999450683594 -16.299999237060547,-50.499000549316406 -16.299999237060547,-50.499000549316406 C-16.299999237060547,-50.499000549316406 -5.400000095367432,-46.499000549316406 -5.400000095367432,-46.499000549316406 C-5.400000095367432,-46.499000549316406 -5.400000095367432,-56.400001525878906 -5.400000095367432,-56.400001525878906 C-5.400000095367432,-56.400001525878906 0.5,-55.400001525878906 0.5,-55.400001525878906 C0.5,-55.400001525878906 16.299999237060547,-35.099998474121094 16.299999237060547,-35.099998474121094 C16.299999237060547,-35.099998474121094 16.299999237060547,56.400001525878906 16.299999237060547,56.400001525878906 C16.299999237060547,56.400001525878906 -16.299999237060547,42.500999450683594 -16.299999237060547,42.500999450683594z">
                </path>
            </g>
            <g opacity="1" transform="matrix(1,0,0,1,6.599999904632568,14.649999618530273)">
                <path fill="rgb(241,241,241)" fill-opacity="1"
                    d=" M5.699999809265137,-3.25 C5.699999809265137,-3.25 -5.699999809265137,-0.75 -5.699999809265137,-0.75 C-5.699999809265137,-0.75 5.699999809265137,3.25 5.699999809265137,3.25 C5.699999809265137,3.25 5.699999809265137,-3.25 5.699999809265137,-3.25z">
                </path>
            </g>
            <g opacity="1" transform="matrix(1,0,0,1,31.149999618530273,60.849998474121094)">
                <path stroke-linecap="butt" stroke-linejoin="miter" fill-opacity="0" stroke-miterlimit="4"
                    stroke="rgb(107,107,107)" stroke-opacity="1" stroke-width="1"
                    d=" M-12.850000381469727,-51.95000076293945 C-12.850000381469727,-51.95000076293945 2.950000047683716,-31.649999618530273 2.950000047683716,-31.649999618530273 M-12.850000381469727,-51.95000076293945 C-12.850000381469727,-51.95000076293945 13.850000381469727,-58.849998474121094 13.850000381469727,-58.849998474121094 M-12.850000381469727,-51.95000076293945 C-12.850000381469727,-51.95000076293945 -18.75,-52.95000076293945 -18.75,-52.95000076293945 M2.950000047683716,-31.649999618530273 C2.950000047683716,-31.649999618530273 2.950000047683716,59.849998474121094 2.950000047683716,59.849998474121094 M2.950000047683716,-31.649999618530273 C2.950000047683716,-31.649999618530273 30.149999618530273,-40.04999923706055 30.149999618530273,-40.04999923706055 M2.950000047683716,59.849998474121094 C2.950000047683716,59.849998474121094 30.149999618530273,49.45000076293945 30.149999618530273,49.45000076293945 C30.149999618530273,49.45000076293945 30.149999618530273,-40.04999923706055 30.149999618530273,-40.04999923706055 M2.950000047683716,59.849998474121094 C2.950000047683716,59.849998474121094 -30.149999618530273,46.04999923706055 -30.149999618530273,46.04999923706055 C-30.149999618530273,46.04999923706055 -30.149999618530273,-46.95000076293945 -30.149999618530273,-46.95000076293945 M30.149999618530273,-40.04999923706055 C30.149999618530273,-40.04999923706055 13.850000381469727,-58.849998474121094 13.850000381469727,-58.849998474121094 M13.850000381469727,-58.849998474121094 C13.850000381469727,-58.849998474121094 9.850000381469727,-59.849998474121094 9.850000381469727,-59.849998474121094 C9.850000381469727,-59.849998474121094 -18.850000381469727,-52.849998474121094 -18.850000381469727,-52.849998474121094 M-18.850000381469727,-52.849998474121094 C-18.850000381469727,-52.849998474121094 -18.850000381469727,-48.849998474121094 -18.850000381469727,-48.849998474121094 M-30.149999618530273,-46.95000076293945 C-30.149999618530273,-46.95000076293945 -18.75,-42.95000076293945 -18.75,-42.95000076293945 C-18.75,-42.95000076293945 -18.75,-48.849998474121094 -18.75,-48.849998474121094 M-30.149999618530273,-46.95000076293945 C-30.149999618530273,-46.95000076293945 -18.75,-48.95000076293945 -18.75,-48.95000076293945">
                </path>
            </g>
            <g opacity="1" transform="matrix(1,0,0,1,37.349998474121094,122.94999694824219)">
                <path stroke-linecap="butt" stroke-linejoin="miter" fill-opacity="0" stroke-miterlimit="4"
                    stroke="rgb(107,107,107)" stroke-opacity="1" stroke-width="1"
                    d=" M-24.049999237060547,-10.649999618530273 C-24.049999237060547,-10.649999618530273 -24.049999237060547,4.650000095367432 -24.049999237060547,4.650000095367432 C-24.049999237060547,4.650000095367432 -20.549999237060547,6.650000095367432 -20.549999237060547,6.650000095367432 C-20.549999237060547,6.650000095367432 -18.549999237060547,-4.75 -18.549999237060547,-4.75 C-18.549999237060547,-4.75 -10.649999618530273,-1.25 -10.649999618530273,-1.25 C-10.649999618530273,-1.25 -9.149999618530273,11.649999618530273 -9.149999618530273,11.649999618530273 C-9.149999618530273,11.649999618530273 -5.650000095367432,13.649999618530273 -5.650000095367432,13.649999618530273 C-5.650000095367432,13.649999618530273 -3.1500000953674316,0.25 -3.1500000953674316,0.25 C-3.1500000953674316,0.25 24.049999237060547,-10.149999618530273 24.049999237060547,-10.149999618530273 C24.049999237060547,-10.149999618530273 24.049999237060547,-13.649999618530273 24.049999237060547,-13.649999618530273">
                </path>
            </g>
            <g opacity="1" transform="matrix(1,0,0,1,49.75,121.1500015258789)">
                <path stroke-linecap="butt" stroke-linejoin="miter" fill-opacity="0" stroke-miterlimit="4"
                    stroke="rgb(107,107,107)" stroke-opacity="1" stroke-width="1"
                    d=" M-3.25,-2.450000047683716 C-3.25,-2.450000047683716 -0.25,3.950000047683716 -0.25,3.950000047683716 C-0.25,3.950000047683716 3.25,4.949999809265137 3.25,4.949999809265137 C3.25,4.949999809265137 3.25,-4.949999809265137 3.25,-4.949999809265137">
                </path>
            </g>
        </g>
        <g style="display: block;" transform="matrix(1,0,0,1,238.05001831054688,125.8600082397461)" opacity="1">
            <g opacity="1" transform="matrix(1,0,0,1,87.44999694824219,29.850000381469727)">
                <path fill="rgb(244,244,244)" fill-opacity="1"
                    d=" M-87.0999984741211,20.200000762939453 C-87.0999984741211,20.200000762939453 -87.0999984741211,15.100000381469727 -87.0999984741211,15.100000381469727 C-87.0999984741211,15.100000381469727 -85.19999694824219,11.399999618530273 -85.19999694824219,11.399999618530273 C-85.19999694824219,11.399999618530273 -81,8.100000381469727 -81,8.100000381469727 C-81,8.100000381469727 4.599999904632568,-29.600000381469727 4.599999904632568,-29.600000381469727 C4.599999904632568,-29.600000381469727 6.5,-29.600000381469727 6.5,-29.600000381469727 C6.5,-29.600000381469727 81.9000015258789,8.100000381469727 81.9000015258789,8.100000381469727 C81.9000015258789,8.100000381469727 85.19999694824219,11.399999618530273 85.19999694824219,11.399999618530273 C85.19999694824219,11.399999618530273 87.0999984741211,15.100000381469727 87.0999984741211,15.100000381469727 C87.0999984741211,15.100000381469727 87.0999984741211,17.899999618530273 87.0999984741211,17.899999618530273 C87.0999984741211,17.899999618530273 62.400001525878906,26.299999237060547 62.400001525878906,26.299999237060547 C62.400001525878906,26.299999237060547 22.799999237060547,29.600000381469727 22.799999237060547,29.600000381469727 C22.799999237060547,29.600000381469727 -26.100000381469727,28.200000762939453 -26.100000381469727,28.200000762939453 C-26.100000381469727,28.200000762939453 -65.69999694824219,24.899999618530273 -65.69999694824219,24.899999618530273 C-65.69999694824219,24.899999618530273 -87.0999984741211,20.200000762939453 -87.0999984741211,20.200000762939453z">
                </path>
            </g>
        </g>
        <g transform="matrix(1,0,0,1,238.05001831054688,125.8600082397461)" opacity="1" style="display: block;">
            <g opacity="1" transform="matrix(1,0,0,1,87.3499984741211,105.44999694824219)">
                <path fill="rgb(255,255,255)" fill-opacity="1"
                    d=" M87.0009994506836,-60.5 C71.19999694824219,-44.20000076293945 -66.29900360107422,-44.70000076293945 -87.0999984741211,-60.5 C-87.0999984741211,-60.5 -87.0999984741211,30.200000762939453 -87.0999984741211,30.200000762939453 C-87.0999984741211,30.200000762939453 -86.5999984741211,35.79999923706055 -86.5999984741211,35.79999923706055 C-86.5999984741211,35.79999923706055 -83.79900360107422,40.900001525878906 -83.79900360107422,40.900001525878906 C-83.79900360107422,40.900001525878906 -76.79900360107422,46.5 -76.79900360107422,46.5 C-76.79900360107422,46.5 -64.69999694824219,52.10100173950195 -64.69999694824219,52.10100173950195 C-64.69999694824219,52.10100173950195 -54.499000549316406,54.900001525878906 -54.499000549316406,54.900001525878906 C-54.499000549316406,54.900001525878906 -40.999000549316406,57.70000076293945 -40.999000549316406,57.70000076293945 C-40.999000549316406,57.70000076293945 -26.10099983215332,59.10100173950195 -26.10099983215332,59.10100173950195 C-26.10099983215332,59.10100173950195 -12.10099983215332,60 -12.10099983215332,60 C-12.10099983215332,60 0.5009999871253967,60.5 0.5009999871253967,60.5 C0.5009999871253967,60.5 4.698999881744385,60 4.698999881744385,60 C4.698999881744385,60 12.600000381469727,60 12.600000381469727,60 C12.600000381469727,60 26.600000381469727,59.10100173950195 26.600000381469727,59.10100173950195 C26.600000381469727,59.10100173950195 37.30099868774414,57.70000076293945 37.30099868774414,57.70000076293945 C37.30099868774414,57.70000076293945 49.400001525878906,55.79999923706055 49.400001525878906,55.79999923706055 C49.400001525878906,55.79999923706055 56.80099868774414,53.900001525878906 56.80099868774414,53.900001525878906 C56.80099868774414,53.900001525878906 68.9000015258789,50.20000076293945 68.9000015258789,50.20000076293945 C68.9000015258789,50.20000076293945 78.6989974975586,45.10100173950195 78.6989974975586,45.10100173950195 C78.6989974975586,45.10100173950195 84.3010025024414,40.400001525878906 84.3010025024414,40.400001525878906 C84.3010025024414,40.400001525878906 87.0999984741211,33.900001525878906 87.0999984741211,33.900001525878906 C87.0999984741211,33.900001525878906 87.0999984741211,-60.5 87.0999984741211,-60.5 C87.0999984741211,-60.5 87.0009994506836,-60.5 87.0009994506836,-60.5z">
                </path>
            </g>
        </g>
        <g mask="url(#__lottie_element_15)" style="display: block;">
            <g transform="matrix(1,0,0,1,237.10000610351562,124.41100311279297)" opacity="1">
                <g opacity="1" transform="matrix(1,0,0,1,88.3499984741211,88.9990005493164)">
                    <path stroke-linecap="butt" stroke-linejoin="miter" fill-opacity="0" stroke-miterlimit="4"
                        stroke="rgb(107,107,107)" stroke-opacity="1" stroke-width="1.3"
                        d=" M87.05000305175781,50 C87.05000305175781,87.6989974975586 -87.05000305175781,87.6989974975586 -87.05000305175781,50 C-87.05000305175781,50 -87.05000305175781,-40.29899978637695 -87.05000305175781,-40.29899978637695 C-87.05000305175781,-44.29899978637695 -84.75,-47.79999923706055 -81.05000305175781,-49.400001525878906 C-81.05000305175781,-49.400001525878906 6.050000190734863,-87.6989974975586 6.050000190734863,-87.6989974975586 C6.050000190734863,-87.6989974975586 81.55000305175781,-49.499000549316406 81.55000305175781,-49.499000549316406 C84.94999694824219,-47.79899978637695 87.05000305175781,-44.39899826049805 87.05000305175781,-40.599998474121094 C87.05000305175781,-40.599998474121094 87.05000305175781,50 87.05000305175781,50z">
                    </path>
                </g>
                <g opacity="1" transform="matrix(1,0,0,1,91.5999984741211,83.80000305175781)">
                    <path stroke-linecap="butt" stroke-linejoin="miter" fill-opacity="0" stroke-miterlimit="4"
                        stroke="rgb(107,107,107)" stroke-opacity="1" stroke-width="0.8"
                        d=" M2.799999952316284,-82.5999984741211 C2.799999952316284,-82.5999984741211 -63.79999923706055,-29.5 -63.79999923706055,-29.5 C-63.79999923706055,-29.5 -63.79999923706055,76.19999694824219 -63.79999923706055,76.19999694824219 M2.799999952316284,-82.5999984741211 C2.799999952316284,-82.5999984741211 63.79999923706055,-29.5 63.79999923706055,-29.5 C63.79999923706055,-29.5 63.79999923706055,-7.699999809265137 63.79999923706055,-7.699999809265137 M2.799999952316284,-82.5999984741211 C2.799999952316284,-82.5999984741211 -24.200000762939453,-25.799999237060547 -24.200000762939453,-25.799999237060547 C-24.200000762939453,-25.799999237060547 -24.200000762939453,82.5999984741211 -24.200000762939453,82.5999984741211 M2.799999952316284,-82.5999984741211 C2.799999952316284,-82.5999984741211 22.799999237060547,-25.799999237060547 22.799999237060547,-25.799999237060547 C22.799999237060547,-25.799999237060547 22.799999237060547,82.5999984741211 22.799999237060547,82.5999984741211">
                    </path>
                </g>
            </g>
        </g>
        <g style="display: block;" transform="matrix(1,0,0,1,390.3500061035156,157.45999145507812)" opacity="1">
            <g opacity="1" transform="matrix(1,0,0,1,92.9010009765625,31.75)">
                <path fill="rgb(244,244,244)" fill-opacity="1"
                    d=" M-92.55000305175781,21.5 C-92.55000305175781,21.5 -92.55000305175781,16.100000381469727 -92.55000305175781,16.100000381469727 C-92.55000305175781,16.100000381469727 -90.55000305175781,12.100000381469727 -90.55000305175781,12.100000381469727 C-90.55000305175781,12.100000381469727 -86.05000305175781,8.600000381469727 -86.05000305175781,8.600000381469727 C-86.05000305175781,8.600000381469727 4.949999809265137,-31.5 4.949999809265137,-31.5 C4.949999809265137,-31.5 6.949999809265137,-31.5 6.949999809265137,-31.5 C6.949999809265137,-31.5 87.05000305175781,8.600000381469727 87.05000305175781,8.600000381469727 C87.05000305175781,8.600000381469727 90.55000305175781,12.100000381469727 90.55000305175781,12.100000381469727 C90.55000305175781,12.100000381469727 92.55000305175781,16.100000381469727 92.55000305175781,16.100000381469727 C92.55000305175781,16.100000381469727 92.55000305175781,19.100000381469727 92.55000305175781,19.100000381469727 C92.55000305175781,19.100000381469727 66.3489990234375,28 66.3489990234375,28 C66.3489990234375,28 24.349000930786133,31.5 24.349000930786133,31.5 C24.349000930786133,31.5 -27.549999237060547,30 -27.549999237060547,30 C-27.549999237060547,30 -69.55000305175781,26.5 -69.55000305175781,26.5 C-69.55000305175781,26.5 -92.55000305175781,21.5 -92.55000305175781,21.5z">
                </path>
            </g>
        </g>
        <g transform="matrix(1,0,0,1,390.3500061035156,157.45999145507812)" opacity="1" style="display: block;">
            <g opacity="1" transform="matrix(1,0,0,1,92.80000305175781,112.0999984741211)">
                <path fill="rgb(255,255,255)" fill-opacity="1"
                    d=" M92.44999694824219,-64.25 C75.6500015258789,-46.95000076293945 -70.4489974975586,-47.45000076293945 -92.55000305175781,-64.25 C-92.55000305175781,-64.25 -92.55000305175781,32.150001525878906 -92.55000305175781,32.150001525878906 C-92.55000305175781,32.150001525878906 -92.05000305175781,38.04999923706055 -92.05000305175781,38.04999923706055 C-92.05000305175781,38.04999923706055 -89.05000305175781,43.45000076293945 -89.05000305175781,43.45000076293945 C-89.05000305175781,43.45000076293945 -81.6500015258789,49.35100173950195 -81.6500015258789,49.35100173950195 C-81.6500015258789,49.35100173950195 -68.7490005493164,55.25 -68.7490005493164,55.25 C-68.7490005493164,55.25 -57.849998474121094,58.25 -57.849998474121094,58.25 C-57.849998474121094,58.25 -43.54999923706055,61.25 -43.54999923706055,61.25 C-43.54999923706055,61.25 -27.749000549316406,62.75 -27.749000549316406,62.75 C-27.749000549316406,62.75 -12.949000358581543,63.75 -12.949000358581543,63.75 C-12.949000358581543,63.75 0.44999998807907104,64.25 0.44999998807907104,64.25 C0.44999998807907104,64.25 4.949999809265137,63.75 4.949999809265137,63.75 C4.949999809265137,63.75 13.350000381469727,63.75 13.350000381469727,63.75 C13.350000381469727,63.75 28.149999618530273,62.75 28.149999618530273,62.75 C28.149999618530273,62.75 39.54999923706055,61.25 39.54999923706055,61.25 C39.54999923706055,61.25 52.45000076293945,59.25 52.45000076293945,59.25 C52.45000076293945,59.25 60.3489990234375,57.25 60.3489990234375,57.25 C60.3489990234375,57.25 73.25,53.25 73.25,53.25 C73.25,53.25 83.64900207519531,47.85100173950195 83.64900207519531,47.85100173950195 C83.64900207519531,47.85100173950195 89.55000305175781,42.95000076293945 89.55000305175781,42.95000076293945 C89.55000305175781,42.95000076293945 92.55000305175781,36.04999923706055 92.55000305175781,36.04999923706055 C92.55000305175781,36.04999923706055 92.55000305175781,-64.25 92.55000305175781,-64.25 C92.55000305175781,-64.25 92.44999694824219,-64.25 92.44999694824219,-64.25z">
                </path>
            </g>
        </g>
        <g transform="matrix(1,0,0,1,389.29998779296875,156.00999450683594)" opacity="1" style="display: block;">
            <g opacity="1" transform="matrix(1,0,0,1,93.80000305175781,94.55000305175781)">
                <path stroke-linecap="butt" stroke-linejoin="miter" fill-opacity="0" stroke-miterlimit="4"
                    stroke="rgb(107,107,107)" stroke-opacity="1" stroke-width="1.3"
                    d=" M92.5,53.150001525878906 C92.5,93.25 -92.5,93.25 -92.5,53.150001525878906 C-92.5,53.150001525878906 -92.5,-43.25 -92.5,-43.25 C-92.5,-47.25 -90.1989974975586,-50.75 -86.5,-52.349998474121094 C-86.5,-52.349998474121094 6.400000095367432,-93.25 6.400000095367432,-93.25 C6.400000095367432,-93.25 87,-52.54999923706055 87,-52.54999923706055 C90.4000015258789,-50.849998474121094 92.5,-47.45100021362305 92.5,-43.650001525878906 C92.5,-43.650001525878906 92.5,53.150001525878906 92.5,53.150001525878906z">
                </path>
            </g>
            <g opacity="1" transform="matrix(1,0,0,1,97.35099792480469,89.05000305175781)">
                <path stroke-linecap="butt" stroke-linejoin="miter" fill-opacity="0" stroke-miterlimit="4"
                    stroke="rgb(107,107,107)" stroke-opacity="1" stroke-width="0.8"
                    d=" M2.9489998817443848,-87.75 C2.9489998817443848,-87.75 -67.75,-31.350000381469727 -67.75,-31.350000381469727 C-67.75,-31.350000381469727 -67.75,80.94999694824219 -67.75,80.94999694824219 M2.9489998817443848,-87.75 C2.9489998817443848,-87.75 67.75,-31.350000381469727 67.75,-31.350000381469727 C67.75,-31.350000381469727 67.75,78.44999694824219 67.75,78.44999694824219 M2.9489998817443848,-87.75 C2.9489998817443848,-87.75 -25.75,-27.450000762939453 -25.75,-27.450000762939453 C-25.75,-27.450000762939453 -25.75,87.75 -25.75,87.75 M2.9489998817443848,-87.75 C2.9489998817443848,-87.75 24.25,-27.450000762939453 24.25,-27.450000762939453 C24.25,-27.450000762939453 24.25,87.75 24.25,87.75">
                </path>
            </g>
        </g>
        <g style="display: block;" transform="matrix(1,0,0,1,34.75,55.75999450683594)" opacity="1">
            <g opacity="1" transform="matrix(1,0,0,1,100.75,40.75)">
                <path fill="rgb(107,107,107)" fill-opacity="1"
                    d=" M-5.5,20 C-5.5,20 -5.5,-20 -5.5,-20 C-5.5,-20 5.5,-18 5.5,-18 C5.5,-18 5.5,15.300000190734863 5.5,15.300000190734863 C5.5,15.300000190734863 -5.5,20 -5.5,20z">
                </path>
            </g>
            <g opacity="1" transform="matrix(1,0,0,1,380.25,106.25)">
                <path fill="rgb(107,107,107)" fill-opacity="1"
                    d=" M8,24.200000762939453 C8,24.200000762939453 -8,31.5 -8,31.5 C-8,31.5 -8,-31.5 -8,-31.5 C-8,-31.5 8,-28.200000762939453 8,-28.200000762939453 C8,-28.200000762939453 8,24.200000762939453 8,24.200000762939453z">
                </path>
            </g>
            <g opacity="1" transform="matrix(1,0,0,1,37.75,14.75)">
                <path fill="rgb(107,107,107)" fill-opacity="1"
                    d=" M-2.5,-7 C-2.5,-7 2.5,-5.5 2.5,-5.5 C2.5,-5.5 2.5,7 2.5,7 C2.5,7 -2.5,7 -2.5,7 C-2.5,7 -2.5,-7 -2.5,-7z">
                </path>
            </g>
            <g opacity="1" transform="matrix(1,0,0,1,142.75,34.75)">
                <path fill="rgb(107,107,107)" fill-opacity="1"
                    d=" M-2.5,-6 C-2.5,-6 2.5,-4.699999809265137 2.5,-4.699999809265137 C2.5,-4.699999809265137 2.5,6 2.5,6 C2.5,6 -2.5,6 -2.5,6 C-2.5,6 -2.5,-6 -2.5,-6z">
                </path>
            </g>
            <g opacity="1" transform="matrix(1,0,0,1,296.25,65.75)">
                <path fill="rgb(107,107,107)" fill-opacity="1"
                    d=" M-3,-5 C-3,-5 3,-3.5 3,-3.5 C3,-3.5 3,5 3,5 C3,5 -3,5 -3,5 C-3,5 -3,-5 -3,-5z"></path>
            </g>
            <g opacity="1" transform="matrix(1,0,0,1,454.79901123046875,98.0999984741211)">
                <path fill="rgb(107,107,107)" fill-opacity="1"
                    d=" M-2.950000047683716,-4.449999809265137 C-2.950000047683716,-4.449999809265137 2.950000047683716,-3.450000047683716 2.950000047683716,-3.450000047683716 C2.950000047683716,-3.450000047683716 2.950000047683716,4.449999809265137 2.950000047683716,4.449999809265137 C2.950000047683716,4.449999809265137 -2.950000047683716,4.449999809265137 -2.950000047683716,4.449999809265137 C-2.950000047683716,4.449999809265137 -2.950000047683716,-4.449999809265137 -2.950000047683716,-4.449999809265137z">
                </path>
            </g>
            <g opacity="1" transform="matrix(1,0,0,1,272,111)">
                <path fill="rgb(107,107,107)" fill-opacity="1"
                    d=" M-271.75,-74.25 C-271.75,-74.25 -262.2510070800781,-78.25 -262.2510070800781,-78.25 C-262.2510070800781,-78.25 -262.2510070800781,-103.05000305175781 -262.2510070800781,-103.05000305175781 C-262.2510070800781,-103.05000305175781 260.75,-0.25 260.75,-0.25 C260.75,-0.25 260.75,110.75 260.75,110.75 C260.75,110.75 271.75,105.25 271.75,105.25 C271.75,105.25 271.75,-3.75 271.75,-3.75 C271.75,-3.75 -265.7650146484375,-109.4749984741211 -265.7650146484375,-109.4749984741211 C-265.7650146484375,-109.4749984741211 -271.375,-109.25 -271.375,-109.25 C-271.375,-109.25 -271.75,-74.25 -271.75,-74.25z">
                </path>
            </g>
        </g>
    </g>
</svg>