<svg xmlns="http://www.w3.org/2000/svg" viewBox="0 0 363 601" width="363" height="601" preserveAspectRatio="xMidYMid meet" style="width: 100%; height: 100%; transform: translate3d(0px, 0px, 0px);"><defs><clipPath id="__lottie_element_124"><rect width="363" height="601" x="0" y="0"></rect></clipPath></defs><g clip-path="url(#__lottie_element_124)"><g style="display: block;" transform="matrix(1,0,0,1,73.7550048828125,117.99697875976562)" opacity="1"><g opacity="1" transform="matrix(1,0,0,1,59.75,364.00299072265625)"><path fill="rgb(95,95,95)" fill-opacity="1" d=" M-58.48025894165039,-29.091588973999023 C-58.48025894165039,-29.091588973999023 -58.50489044189453,38.10264205932617 -58.50489044189453,38.10264205932617 C-22.719301223754883,46.99014663696289 11.02541446685791,48.10665512084961 58.16497802734375,48.94088363647461 C58.16497802734375,48.94088363647461 58.17729187011719,-43.468536376953125 58.17729187011719,-43.468536376953125 C58.17729187011719,-43.468536376953125 40.05415344238281,-48.9310302734375 40.05415344238281,-48.9310302734375 C40.05415344238281,-48.9310302734375 -58.48025894165039,-29.091588973999023 -58.48025894165039,-29.091588973999023z"></path></g><g opacity="1" transform="matrix(1,0,0,1,59.75,168.62600708007812)"><path fill="rgb(71,71,71)" fill-opacity="1" d=" M55.01161575317383,-166.89492797851562 C16.080974578857422,-168.35723876953125 -3.113701581954956,-167.43865966796875 -38.07386016845703,-163.6919708251953 C-38.07386016845703,-163.6919708251953 -56.911293029785156,-142.0786590576172 -56.911293029785156,-142.0786590576172 C-56.911293029785156,-142.0786590576172 -58.48025894165039,168.18141174316406 -58.48025894165039,168.18141174316406 C-25.628690719604492,159.967041015625 -1.5580536127090454,156.56163024902344 58.17729187011719,154.38845825195312 C58.17729187011719,154.38845825195312 58.26350402832031,-138.9227752685547 58.26350402832031,-138.9227752685547 C58.26350402832031,-138.9227752685547 55.01161575317383,-166.89492797851562 55.01161575317383,-166.89492797851562z"></path></g></g><g transform="matrix(1,0,0,1,-0.3000030517578125,0.20001220703125)" opacity="1" style="display: block;"><g opacity="1" transform="matrix(1,0,0,1,124.88800048828125,277.29998779296875)"><path stroke-linecap="butt" stroke-linejoin="miter" fill-opacity="0" stroke-miterlimit="4" stroke="rgb(135,135,135)" stroke-opacity="1" stroke-width="1.3" d=" M-50.06572341918945,242.6564178466797 C-50.39872360229492,117.32341766357422 -49.30219650268555,-133.44088745117188 -48.502197265625,-133.44088745117188 C-47.70219802856445,-133.44088745117188 -5.962514877319336,-182.7599334716797 14.894701957702637,-207.51231384277344 C14.894701957702637,-207.51231384277344 48.225337982177734,-207.51724243164062 48.225337982177734,-207.51724243164062 C48.225337982177734,-207.51724243164062 50.703800201416016,-211.99261474609375 50.703800201416016,-211.99261474609375 C50.703800201416016,-211.99261474609375 31.590513229370117,-211.99754333496094 31.590513229370117,-211.99754333496094 C31.590513229370117,-211.99754333496094 51.41699981689453,-242.5 51.41699981689453,-242.5"></path></g><g opacity="1" transform="matrix(1,0,0,1,38.80500030517578,143.0500030517578)"><path stroke-linecap="butt" stroke-linejoin="miter" fill-opacity="0" stroke-miterlimit="4" stroke="rgb(135,135,135)" stroke-opacity="1" stroke-width="1" d=" M-9,-92.75 C-9,-92.75 9,-57.75 9,-57.75 C9,-57.75 -9,-19.75 -9,-19.75 C-9,-19.75 9,20.25 9,20.25 C9,20.25 -9,57.25 -9,57.25 C-9,57.25 9,92.75 9,92.75 M9,-92.75 C9,-92.75 -9,-57.75 -9,-57.75 C-9,-57.75 9,-19.75 9,-19.75 C9,-19.75 -9,20.25 -9,20.25 C-9,20.25 9,57.25 9,57.25 C9,57.25 -9,86.75 -9,86.75"></path></g><g opacity="1" transform="matrix(1,0,0,1,0,0)"><path stroke-linecap="butt" stroke-linejoin="miter" fill-opacity="0" stroke-miterlimit="4" stroke="rgb(135,135,135)" stroke-opacity="1" stroke-width="1.3" d=" M192.06480407714844,147.29629516601562 C192.06480407714844,147.29629516601562 191.9613494873047,530.2371826171875 191.9613494873047,530.2371826171875"></path></g><g opacity="1" transform="matrix(1,0,0,1,0,0)"><path stroke-linecap="butt" stroke-linejoin="miter" fill-opacity="0" stroke-miterlimit="4" stroke="rgb(135,135,135)" stroke-opacity="1" stroke-width="1" d=" M28.30500030517578,230.8000030517578 C28.30500030517578,230.8000030517578 28.30500030517578,504.79998779296875 28.30500030517578,504.79998779296875"></path></g><g opacity="1" transform="matrix(1,0,0,1,0,0)"><path stroke-linecap="butt" stroke-linejoin="miter" fill-opacity="0" stroke-miterlimit="4" stroke="rgb(135,135,135)" stroke-opacity="1" stroke-width="1" d=" M54.94541549682617,141.87881469726562 C54.94541549682617,141.87881469726562 54.82476043701172,514.9306030273438 54.82476043701172,514.9306030273438"></path></g><g opacity="1" transform="matrix(1,0,0,1,0,0)"><path stroke-linecap="butt" stroke-linejoin="miter" fill-opacity="0" stroke-miterlimit="4" stroke="rgb(135,135,135)" stroke-opacity="1" stroke-width="1" d=" M202.7309112548828,147.6577606201172 C202.7309112548828,147.6577606201172 202.79698181152344,530.2550659179688 202.79698181152344,530.2550659179688"></path></g><g opacity="1" transform="matrix(1,0,0,1,0,0)"><path stroke-linecap="butt" stroke-linejoin="miter" fill-opacity="0" stroke-miterlimit="4" stroke="rgb(135,135,135)" stroke-opacity="1" stroke-width="1" d=" M229.30499267578125,147.8000030517578 C229.30499267578125,147.8000030517578 229.30499267578125,529.2999877929688 229.30499267578125,529.2999877929688"></path></g><g opacity="1" transform="matrix(1,0,0,1,0,0)"><path stroke-linecap="butt" stroke-linejoin="miter" fill-opacity="0" stroke-miterlimit="4" stroke="rgb(135,135,135)" stroke-opacity="1" stroke-width="1" d=" M263.30499267578125,147.8000030517578 C263.30499267578125,147.8000030517578 263.30499267578125,526.7999877929688 263.30499267578125,526.7999877929688"></path></g><g opacity="1" transform="matrix(1,0,0,1,0,0)"><path stroke-linecap="butt" stroke-linejoin="miter" fill-opacity="0" stroke-miterlimit="4" stroke="rgb(135,135,135)" stroke-opacity="1" stroke-width="1" d=" M318.30499267578125,142.8000030517578 C318.30499267578125,142.8000030517578 318.30499267578125,515.7999877929688 318.30499267578125,515.7999877929688"></path></g><g opacity="1" transform="matrix(1,0,0,1,0,0)"><path stroke-linecap="butt" stroke-linejoin="miter" fill-opacity="0" stroke-miterlimit="4" stroke="rgb(135,135,135)" stroke-opacity="1" stroke-width="1" d=" M347.30499267578125,135.8000030517578 C347.30499267578125,135.8000030517578 347.30499267578125,502.79998779296875 347.30499267578125,502.79998779296875"></path></g><g opacity="1" transform="matrix(1,0,0,1,182.302001953125,551.7109985351562)"><path stroke-linecap="butt" stroke-linejoin="miter" fill-opacity="0" stroke-miterlimit="4" stroke="rgb(135,135,135)" stroke-opacity="1" stroke-width="1.3" d=" M176.0030059814453,-67.91100311279297 C181.0030059814453,-4.910999774932861 -165.0019989013672,-5.910999774932861 -171.0030059814453,-67.91100311279297 C-171.0030059814453,-67.91100311279297 -176.69900512695312,-62.784000396728516 -176.69900512695312,-62.784000396728516 C-179.43800354003906,-60.319000244140625 -181.0019989013672,-56.80699920654297 -181.0019989013672,-53.12200164794922 C-181.0019989013672,-53.12200164794922 -181.0019989013672,-13.458999633789062 -181.0019989013672,-13.458999633789062 C-181.0019989013672,-5.431000232696533 -177.93600463867188,2.4019999504089355 -171.50399780273438,7.205999851226807 C-90.23899841308594,67.91200256347656 141.48300170898438,55.6879997253418 177.1219940185547,4.304999828338623 C179.36399841308594,1.0709999799728394 179.9980010986328,-2.936000108718872 179.9980010986328,-6.872000217437744 C179.9980010986328,-6.872000217437744 179.9980010986328,-54.249000549316406 179.9980010986328,-54.249000549316406 C179.9980010986328,-57.323001861572266 179.35400390625,-60.362998962402344 178.10699462890625,-63.17300033569336 C178.10699462890625,-63.17300033569336 176.0030059814453,-67.91100311279297 176.0030059814453,-67.91100311279297z"></path></g><g opacity="1" transform="matrix(1,0,0,1,184.80499267578125,249.8000030517578)"><path stroke-linecap="butt" stroke-linejoin="miter" fill-opacity="0" stroke-miterlimit="4" stroke="rgb(135,135,135)" stroke-opacity="1" stroke-width="1.3" d=" M-173.5,235 C-173.5,235 -173.5,-121 -173.5,-121 C-173.5,-121 -14.5,-215 -14.5,-215 C-14.5,-215 5.5,-215 5.5,-215 C5.5,-215 173.5,-121 173.5,-121 C173.5,-121 173.5,235 173.5,235 M-167,-248.5 C-167,-248.5 145.156005859375,-248.5 145.156005859375,-248.5 M-166.5,-231.5 C-166.5,-231.5 -166.5,-220.5 -166.5,-220.5 C-166.5,-220.5 -163.5,-220.5 -163.5,-220.5 C-163.5,-220.5 -163.5,-215 -163.5,-215 C-163.5,-215 -131.5,-215 -131.5,-215 C-131.5,-215 133,-220.5 133,-220.5 C133,-220.5 133,-225 133,-225 C133,-225 144.5,-225 144.5,-225 C144.5,-225 144.5,-235 144.5,-235 C144.5,-235 -166.5,-231.5 -166.5,-231.5z"></path></g><g opacity="1" transform="matrix(1,0,0,1,45.30500030517578,550.7999877929688)"><path stroke-linecap="butt" stroke-linejoin="miter" fill-opacity="0" stroke-miterlimit="4" stroke="rgb(135,135,135)" stroke-opacity="1" stroke-width="1" d=" M14,32 C14,32 14,10.5 14,10.5 M14,10.5 C14,10.5 14,-11 14,-11 C14,-11 -14,-20 -14,-20 C-14,-20 -14,20 -14,20 C-14,20 14,10.5 14,10.5z"></path></g><g opacity="1" transform="matrix(1,0,0,1,0,0)"><path stroke-linecap="butt" stroke-linejoin="miter" fill-opacity="0" stroke-miterlimit="4" stroke="rgb(135,135,135)" stroke-opacity="1" stroke-width="1" d=" M309.30499267578125,29.799999237060547 C309.30499267578125,29.799999237060547 309.30499267578125,100.80000305175781 309.30499267578125,100.80000305175781 M312.80499267578125,29.799999237060547 C312.80499267578125,29.799999237060547 312.80499267578125,102.80000305175781 312.80499267578125,102.80000305175781 M293.80499267578125,29.799999237060547 C293.80499267578125,29.799999237060547 293.80499267578125,92.30000305175781 293.80499267578125,92.30000305175781 M290.80499267578125,29.799999237060547 C290.80499267578125,29.799999237060547 290.80499267578125,90.80000305175781 290.80499267578125,90.80000305175781"></path></g><g opacity="1" transform="matrix(1,0,0,1,301.55499267578125,71.30000305175781)"><path stroke-linecap="butt" stroke-linejoin="miter" fill-opacity="0" stroke-miterlimit="4" stroke="rgb(135,135,135)" stroke-opacity="1" stroke-width="1" d=" M-7.75,-30 C-7.75,-30 7.75,-1.5 7.75,-1.5 C7.75,-1.5 -4.75,22.5 -4.75,22.5 M7.75,-30 C7.75,-30 -7.75,-1.5 -7.75,-1.5 C-7.75,-1.5 7.75,30 7.75,30"></path></g><g opacity="1" transform="matrix(1,0,0,1,0,0)"><path stroke-linecap="butt" stroke-linejoin="miter" fill-opacity="0" stroke-miterlimit="4" stroke="rgb(135,135,135)" stroke-opacity="1" stroke-width="1" d=" M18.30500030517578,0.800000011920929 C18.30500030517578,0.800000011920929 18.30500030517578,17.799999237060547 18.30500030517578,17.799999237060547"></path></g><g opacity="1" transform="matrix(1,0,0,1,0,0)"><path stroke-linecap="butt" stroke-linejoin="miter" fill-opacity="0" stroke-miterlimit="4" stroke="rgb(135,135,135)" stroke-opacity="1" stroke-width="1" d=" M49.30500030517578,1.2999999523162842 C49.30500030517578,1.2999999523162842 49.30500030517578,18.299999237060547 49.30500030517578,18.299999237060547"></path></g><g opacity="1" transform="matrix(1,0,0,1,0,0)"><path stroke-linecap="butt" stroke-linejoin="miter" fill-opacity="0" stroke-miterlimit="4" stroke="rgb(135,135,135)" stroke-opacity="1" stroke-width="1" d=" M76.30500030517578,1.2999999523162842 C76.30500030517578,1.2999999523162842 76.30500030517578,18.299999237060547 76.30500030517578,18.299999237060547"></path></g><g opacity="1" transform="matrix(1,0,0,1,0,0)"><path stroke-linecap="butt" stroke-linejoin="miter" fill-opacity="0" stroke-miterlimit="4" stroke="rgb(135,135,135)" stroke-opacity="1" stroke-width="1" d=" M100.30500030517578,1.7999999523162842 C100.30500030517578,1.7999999523162842 100.30500030517578,16.799999237060547 100.30500030517578,16.799999237060547"></path></g><g opacity="1" transform="matrix(1,0,0,1,0,0)"><path stroke-linecap="butt" stroke-linejoin="miter" fill-opacity="0" stroke-miterlimit="4" stroke="rgb(135,135,135)" stroke-opacity="1" stroke-width="1" d=" M125.30500030517578,1.7999999523162842 C125.30500030517578,1.7999999523162842 125.30500030517578,16.799999237060547 125.30500030517578,16.799999237060547"></path></g><g opacity="1" transform="matrix(1,0,0,1,0,0)"><path stroke-linecap="butt" stroke-linejoin="miter" fill-opacity="0" stroke-miterlimit="4" stroke="rgb(135,135,135)" stroke-opacity="1" stroke-width="1" d=" M151.30499267578125,1.7999999523162842 C151.30499267578125,1.7999999523162842 151.30499267578125,16.799999237060547 151.30499267578125,16.799999237060547"></path></g><g opacity="1" transform="matrix(1,0,0,1,0,0)"><path stroke-linecap="butt" stroke-linejoin="miter" fill-opacity="0" stroke-miterlimit="4" stroke="rgb(135,135,135)" stroke-opacity="1" stroke-width="1" d=" M176.30499267578125,1.7999999523162842 C176.30499267578125,1.7999999523162842 176.30499267578125,16.799999237060547 176.30499267578125,16.799999237060547"></path></g><g opacity="1" transform="matrix(1,0,0,1,0,0)"><path stroke-linecap="butt" stroke-linejoin="miter" fill-opacity="0" stroke-miterlimit="4" stroke="rgb(135,135,135)" stroke-opacity="1" stroke-width="1" d=" M203.30499267578125,1.7999999523162842 C203.30499267578125,1.7999999523162842 203.30499267578125,16.799999237060547 203.30499267578125,16.799999237060547"></path></g><g opacity="1" transform="matrix(1,0,0,1,0,0)"><path stroke-linecap="butt" stroke-linejoin="miter" fill-opacity="0" stroke-miterlimit="4" stroke="rgb(135,135,135)" stroke-opacity="1" stroke-width="1" d=" M229.30499267578125,1.7999999523162842 C229.30499267578125,1.7999999523162842 229.30499267578125,15.800000190734863 229.30499267578125,15.800000190734863"></path></g><g opacity="1" transform="matrix(1,0,0,1,0,0)"><path stroke-linecap="butt" stroke-linejoin="miter" fill-opacity="0" stroke-miterlimit="4" stroke="rgb(135,135,135)" stroke-opacity="1" stroke-width="1" d=" M253.30499267578125,1.7999999523162842 C253.30499267578125,1.7999999523162842 253.30499267578125,15.800000190734863 253.30499267578125,15.800000190734863"></path></g><g opacity="1" transform="matrix(1,0,0,1,0,0)"><path stroke-linecap="butt" stroke-linejoin="miter" fill-opacity="0" stroke-miterlimit="4" stroke="rgb(135,135,135)" stroke-opacity="1" stroke-width="1" d=" M276.30499267578125,1.7999999523162842 C276.30499267578125,1.7999999523162842 276.30499267578125,15.800000190734863 276.30499267578125,15.800000190734863"></path></g><g opacity="1" transform="matrix(1,0,0,1,0,0)"><path stroke-linecap="butt" stroke-linejoin="miter" fill-opacity="0" stroke-miterlimit="4" stroke="rgb(135,135,135)" stroke-opacity="1" stroke-width="1" d=" M297.30499267578125,1.7999999523162842 C297.30499267578125,1.7999999523162842 297.30499267578125,15.800000190734863 297.30499267578125,15.800000190734863"></path></g><g opacity="1" transform="matrix(1,0,0,1,0,0)"><path stroke-linecap="butt" stroke-linejoin="miter" fill-opacity="0" stroke-miterlimit="4" stroke="rgb(135,135,135)" stroke-opacity="1" stroke-width="1" d=" M314.30499267578125,1.7999999523162842 C314.30499267578125,1.7999999523162842 314.30499267578125,14.800000190734863 314.30499267578125,14.800000190734863"></path></g><g opacity="1" transform="matrix(1,0,0,1,0,0)"><path stroke-linecap="butt" stroke-linejoin="miter" fill-opacity="0" stroke-miterlimit="4" stroke="rgb(135,135,135)" stroke-opacity="1" stroke-width="1.3" d=" M329.30499267578125,0.800000011920929 C329.30499267578125,0.800000011920929 329.30499267578125,18.799999237060547 329.30499267578125,18.799999237060547"></path></g><g opacity="1" transform="matrix(1,0,0,1,185.80499267578125,91.05000305175781)"><path stroke-linecap="butt" stroke-linejoin="miter" fill-opacity="0" stroke-miterlimit="4" stroke="rgb(135,135,135)" stroke-opacity="1" stroke-width="1.3" d=" M6.268429279327393,56.24014663696289 C6.268429279327393,56.24014663696289 1.6705323457717896,17.26231575012207 1.6705323457717896,17.26231575012207 C1.6705323457717896,17.26231575012207 -8.126248359680176,17.24962615966797 -8.126248359680176,17.24962615966797 C-8.126248359680176,17.24962615966797 -7.793113708496094,-20.269704818725586 -7.793113708496094,-20.269704818725586 C-7.793113708496094,-20.269704818725586 -0.4409022331237793,-20.27216911315918 -0.4409022331237793,-20.27216911315918 C-0.4409022331237793,-20.27216911315918 -0.40949225425720215,-24.273408889770508 -0.40949225425720215,-24.273408889770508 C-0.40949225425720215,-24.273408889770508 -7.757408142089844,-24.278316497802734 -7.757408142089844,-24.278316497802734 C-7.757408142089844,-24.278316497802734 -5.267871379852295,-31.24666976928711 -5.267871379852295,-31.24666976928711 C-5.267871379852295,-31.24666976928711 -0.36515572667121887,-31.24814796447754 -0.36515572667121887,-31.24814796447754 C-0.36515572667121887,-31.24814796447754 -5.087451457977295,-56.25123977661133 -5.087451457977295,-56.25123977661133"></path></g><g opacity="1" transform="matrix(1,0,0,1,275.80499267578125,138.86000061035156)"><path stroke-linecap="butt" stroke-linejoin="miter" fill-opacity="0" stroke-miterlimit="4" stroke="rgb(135,135,135)" stroke-opacity="1" stroke-width="1.3" d=" M-83.73773956298828,8.429147720336914 C-29.373640060424805,10.621657371520996 67,8.439000129699707 82.5,-10.560999870300293"></path></g><g opacity="1" transform="matrix(1,0,0,1,43.80500030517578,136.3000030517578)"><path stroke-linecap="butt" stroke-linejoin="miter" fill-opacity="0" stroke-miterlimit="4" stroke="rgb(135,135,135)" stroke-opacity="1" stroke-width="1.3" d=" M32.336246490478516,7.409263610839844 C1.462376594543457,5.078820705413818 -21.645999908447266,1.3760000467300415 -32,-7.5"></path></g><g opacity="1" transform="matrix(1,0,0,1,113.55500030517578,88.30000305175781)"><path stroke-linecap="butt" stroke-linejoin="miter" fill-opacity="0" stroke-miterlimit="4" stroke="rgb(135,135,135)" stroke-opacity="1" stroke-width="1.3" d=" M-58.60958480834961,53.578819274902344 C-58.60958480834961,53.578819274902344 59.25,-53.5 59.25,-53.5"></path></g><g opacity="1" transform="matrix(1,0,0,1,99.80500030517578,85.80000305175781)"><path stroke-linecap="butt" stroke-linejoin="miter" fill-opacity="0" stroke-miterlimit="4" stroke="rgb(135,135,135)" stroke-opacity="1" stroke-width="1.3" d=" M-71.5,51 C-71.5,51 71.5,-51 71.5,-51"></path></g><g opacity="1" transform="matrix(1,0,0,1,194.55499267578125,103.55000305175781)"><path stroke-linecap="butt" stroke-linejoin="miter" fill-opacity="0" stroke-miterlimit="4" stroke="rgb(135,135,135)" stroke-opacity="1" stroke-width="1.3" d=" M-8.94212532043457,-44.720458984375 C-8.94212532043457,-44.720458984375 8.237667083740234,44.23029327392578 8.237667083740234,44.23029327392578"></path></g><g opacity="1" transform="matrix(1,0,0,1,205.55499267578125,91.30000305175781)"><path stroke-linecap="butt" stroke-linejoin="miter" fill-opacity="0" stroke-miterlimit="4" stroke="rgb(135,135,135)" stroke-opacity="1" stroke-width="1.3" d=" M-23.25,-56.5 C-23.25,-56.5 23.25,56.5 23.25,56.5"></path></g><g opacity="1" transform="matrix(1,0,0,1,224.30499267578125,91.05000305175781)"><path stroke-linecap="butt" stroke-linejoin="miter" fill-opacity="0" stroke-miterlimit="4" stroke="rgb(135,135,135)" stroke-opacity="1" stroke-width="1.3" d=" M39,56.25 C39,56.25 -39,-56.25 -39,-56.25"></path></g><g opacity="1" transform="matrix(1,0,0,1,252.80499267578125,88.55000305175781)"><path stroke-linecap="butt" stroke-linejoin="miter" fill-opacity="0" stroke-miterlimit="4" stroke="rgb(135,135,135)" stroke-opacity="1" stroke-width="1.3" d=" M65,53.75 C65,53.75 -65,-53.75 -65,-53.75"></path></g><g opacity="1" transform="matrix(1,0,0,1,268.55499267578125,85.05000305175781)"><path stroke-linecap="butt" stroke-linejoin="miter" fill-opacity="0" stroke-miterlimit="4" stroke="rgb(135,135,135)" stroke-opacity="1" stroke-width="1.3" d=" M79.25,50.25 C79.25,50.25 -79.25,-50.25 -79.25,-50.25"></path></g><g opacity="1" transform="matrix(1,0,0,1,49.55500030517578,135.8000030517578)"><path stroke-linecap="butt" stroke-linejoin="miter" fill-opacity="0" stroke-miterlimit="4" stroke="rgb(135,135,135)" stroke-opacity="1" stroke-width="1" d=" M1.75,98 C1.75,98 -1.75,100 -1.75,100 C-1.75,100 -1.75,-100 -1.75,-100 C-1.75,-100 1.75,-100 1.75,-100 C1.75,-100 1.75,98 1.75,98z"></path></g><g opacity="1" transform="matrix(1,0,0,1,28.30500030517578,133.8000030517578)"><path stroke-linecap="butt" stroke-linejoin="miter" fill-opacity="0" stroke-miterlimit="4" stroke="rgb(135,135,135)" stroke-opacity="1" stroke-width="1" d=" M1.5,96 C1.5,96 1.5,-98.5 1.5,-98.5 C1.5,-98.5 -1.5,-98.5 -1.5,-98.5 C-1.5,-98.5 -1.5,98.5 -1.5,98.5 C-1.5,98.5 1.5,96 1.5,96z"></path></g></g></g></svg>